999
"DXF R12 Output" (www.mydxf.blogspot.com)
 0 
SECTION
 2 
HEADER
 9 
$ACADVER
 1 
AC1009
 9 
$EXTMIN
 10 
 0 
 20 
 0 
 9 
$EXTMAX
 10 
 8.5 
 20 
 11 
 0 
ENDSEC
 0 
SECTION
 2 
ENTITIES
0
LINE
8
Layer 1
10
235.000000
20
32.500000
11
240.000000
21
32.500000
0
LINE
8
Layer 1
10
240.000000
20
32.500000
11
240.000000
21
52.500000
0
LINE
8
Layer 1
10
240.000000
20
52.500000
11
235.000000
21
52.500000
0
LINE
8
Layer 1
10
235.000000
20
52.500000
11
235.000000
21
72.500000
0
LINE
8
Layer 1
10
235.000000
20
72.500000
11
240.000000
21
72.500000
0
LINE
8
Layer 1
10
240.000000
20
72.500000
11
240.000000
21
92.500000
0
LINE
8
Layer 1
10
240.000000
20
92.500000
11
235.000000
21
92.500000
0
LINE
8
Layer 1
10
235.000000
20
92.500000
11
235.000000
21
110.000000
0
LINE
8
Layer 1
10
235.000000
20
110.000000
11
5.000000
21
110.000000
0
LINE
8
Layer 1
10
5.000000
20
110.000000
11
5.000000
21
92.500000
0
LINE
8
Layer 1
10
5.000000
20
92.500000
11
0.000000
21
92.500000
0
LINE
8
Layer 1
10
0.000000
20
92.500000
11
0.000000
21
72.500000
0
LINE
8
Layer 1
10
0.000000
20
72.500000
11
5.000000
21
72.500000
0
LINE
8
Layer 1
10
5.000000
20
72.500000
11
5.000000
21
52.500000
0
LINE
8
Layer 1
10
5.000000
20
52.500000
11
0.000000
21
52.500000
0
LINE
8
Layer 1
10
0.000000
20
52.500000
11
0.000000
21
32.500000
0
LINE
8
Layer 1
10
0.000000
20
32.500000
11
5.000000
21
32.500000
0
LINE
8
Layer 1
10
5.000000
20
32.500000
11
5.000000
21
15.000000
0
LINE
8
Layer 1
10
5.000000
20
15.000000
11
5.000000
21
10.000000
0
LINE
8
Layer 1
10
5.000000
20
10.000000
11
10.000000
21
10.000000
0
LINE
8
Layer 1
10
10.000000
20
10.000000
11
10.000000
21
15.000000
0
LINE
8
Layer 1
10
10.000000
20
15.000000
11
30.000000
21
15.000000
0
LINE
8
Layer 1
10
30.000000
20
15.000000
11
30.000000
21
10.000000
0
LINE
8
Layer 1
10
30.000000
20
10.000000
11
50.000000
21
10.000000
0
LINE
8
Layer 1
10
50.000000
20
10.000000
11
50.000000
21
15.000000
0
LINE
8
Layer 1
10
50.000000
20
15.000000
11
70.000000
21
15.000000
0
LINE
8
Layer 1
10
70.000000
20
15.000000
11
70.000000
21
10.000000
0
LINE
8
Layer 1
10
70.000000
20
10.000000
11
90.000000
21
10.000000
0
LINE
8
Layer 1
10
90.000000
20
10.000000
11
90.000000
21
15.000000
0
LINE
8
Layer 1
10
90.000000
20
15.000000
11
110.000000
21
15.000000
0
LINE
8
Layer 1
10
110.000000
20
15.000000
11
110.000000
21
10.000000
0
LINE
8
Layer 1
10
110.000000
20
10.000000
11
130.000000
21
10.000000
0
LINE
8
Layer 1
10
130.000000
20
10.000000
11
130.000000
21
15.000000
0
LINE
8
Layer 1
10
130.000000
20
15.000000
11
150.000000
21
15.000000
0
LINE
8
Layer 1
10
150.000000
20
15.000000
11
150.000000
21
10.000000
0
LINE
8
Layer 1
10
150.000000
20
10.000000
11
170.000000
21
10.000000
0
LINE
8
Layer 1
10
170.000000
20
10.000000
11
170.000000
21
15.000000
0
LINE
8
Layer 1
10
170.000000
20
15.000000
11
190.000000
21
15.000000
0
LINE
8
Layer 1
10
190.000000
20
15.000000
11
190.000000
21
10.000000
0
LINE
8
Layer 1
10
190.000000
20
10.000000
11
210.000000
21
10.000000
0
LINE
8
Layer 1
10
210.000000
20
10.000000
11
210.000000
21
15.000000
0
LINE
8
Layer 1
10
210.000000
20
15.000000
11
230.000000
21
15.000000
0
LINE
8
Layer 1
10
230.000000
20
15.000000
11
230.000000
21
10.000000
0
LINE
8
Layer 1
10
230.000000
20
10.000000
11
235.000000
21
10.000000
0
LINE
8
Layer 1
10
235.000000
20
10.000000
11
235.000000
21
15.000000
0
LINE
8
Layer 1
10
235.000000
20
15.000000
11
235.000000
21
32.500000
0
LINE
8
Layer 1
10
107.679000
20
58.732000
11
106.743000
21
58.732000
0
LINE
8
Layer 1
10
106.743000
20
58.732000
11
106.743000
21
66.268000
0
LINE
8
Layer 1
10
106.743000
20
66.268000
11
111.327000
21
66.268000
0
LINE
8
Layer 1
10
111.327000
20
66.268000
11
111.327000
21
65.464000
0
LINE
8
Layer 1
10
111.327000
20
65.464000
11
107.679000
21
65.464000
0
LINE
8
Layer 1
10
107.679000
20
65.464000
11
107.679000
21
62.956000
0
LINE
8
Layer 1
10
107.679000
20
62.956000
11
111.075000
21
62.956000
0
LINE
8
Layer 1
10
111.075000
20
62.956000
11
111.075000
21
62.152000
0
LINE
8
Layer 1
10
111.075000
20
62.152000
11
107.679000
21
62.152000
0
LINE
8
Layer 1
10
107.679000
20
62.152000
11
107.679000
21
58.732000
0
LINE
8
Layer 1
10
107.679000
20
58.732000
11
107.679000
21
58.732000
0
LINE
8
Layer 1
10
113.967000
20
58.732000
11
113.031000
21
58.732000
0
LINE
8
Layer 1
10
113.031000
20
58.732000
11
113.031000
21
64.480000
0
LINE
8
Layer 1
10
113.031000
20
64.480000
11
113.967000
21
64.480000
0
LINE
8
Layer 1
10
113.967000
20
64.480000
11
113.967000
21
58.732000
0
LINE
8
Layer 1
10
113.967000
20
58.732000
11
113.967000
21
58.732000
0
LINE
8
Layer 1
10
113.967000
20
61.324000
11
113.679000
21
61.324000
0
LINE
8
Layer 1
10
113.679000
20
61.324000
11
113.889000
21
63.139000
0
LINE
8
Layer 1
10
113.889000
20
63.139000
11
114.147750
21
63.770500
0
LINE
8
Layer 1
10
114.147750
20
63.770500
11
114.504000
21
64.219000
0
LINE
8
Layer 1
10
114.504000
20
64.219000
11
114.953250
21
64.486750
0
LINE
8
Layer 1
10
114.953250
20
64.486750
11
115.491000
21
64.576000
0
LINE
8
Layer 1
10
115.491000
20
64.576000
11
115.491000
21
64.576000
0
LINE
8
Layer 1
10
115.491000
20
64.576000
11
115.842000
21
64.549000
0
LINE
8
Layer 1
10
115.842000
20
64.549000
11
116.163000
21
64.468000
0
LINE
8
Layer 1
10
116.163000
20
64.468000
11
116.163000
21
64.468000
0
LINE
8
Layer 1
10
116.163000
20
64.468000
11
116.103000
21
63.544000
0
LINE
8
Layer 1
10
116.103000
20
63.544000
11
115.737000
21
63.637000
0
LINE
8
Layer 1
10
115.737000
20
63.637000
11
115.383000
21
63.676000
0
LINE
8
Layer 1
10
115.383000
20
63.676000
11
115.383000
21
63.676000
0
LINE
8
Layer 1
10
115.383000
20
63.676000
11
114.922500
21
63.603250
0
LINE
8
Layer 1
10
114.922500
20
63.603250
11
114.561000
21
63.385000
0
LINE
8
Layer 1
10
114.561000
20
63.385000
11
114.108000
21
62.566000
0
LINE
8
Layer 1
10
114.108000
20
62.566000
11
113.967000
21
61.324000
0
LINE
8
Layer 1
10
113.967000
20
61.324000
11
113.967000
21
61.324000
0
LINE
8
Layer 1
10
113.967000
20
61.324000
11
113.967000
21
61.324000
0
LINE
8
Layer 1
10
119.445000
20
58.588000
11
119.445000
21
58.588000
0
LINE
8
Layer 1
10
119.445000
20
58.588000
11
118.713750
21
58.673500
0
LINE
8
Layer 1
10
118.713750
20
58.673500
11
118.068000
21
58.930000
0
LINE
8
Layer 1
10
118.068000
20
58.930000
11
117.528750
21
59.354500
0
LINE
8
Layer 1
10
117.528750
20
59.354500
11
117.117000
21
59.944000
0
LINE
8
Layer 1
10
117.117000
20
59.944000
11
116.856000
21
60.694000
0
LINE
8
Layer 1
10
116.856000
20
60.694000
11
116.769000
21
61.600000
0
LINE
8
Layer 1
10
116.769000
20
61.600000
11
116.769000
21
61.600000
0
LINE
8
Layer 1
10
116.769000
20
61.600000
11
116.856000
21
62.509750
0
LINE
8
Layer 1
10
116.856000
20
62.509750
11
117.117000
21
63.259000
0
LINE
8
Layer 1
10
117.117000
20
63.259000
11
117.528750
21
63.846250
0
LINE
8
Layer 1
10
117.528750
20
63.846250
11
118.068000
21
64.270000
0
LINE
8
Layer 1
10
118.068000
20
64.270000
11
118.713750
21
64.526500
0
LINE
8
Layer 1
10
118.713750
20
64.526500
11
119.445000
21
64.612000
0
LINE
8
Layer 1
10
119.445000
20
64.612000
11
119.445000
21
64.612000
0
LINE
8
Layer 1
10
119.445000
20
64.612000
11
120.171750
21
64.526500
0
LINE
8
Layer 1
10
120.171750
20
64.526500
11
120.816000
21
64.270000
0
LINE
8
Layer 1
10
120.816000
20
64.270000
11
121.354500
21
63.846250
0
LINE
8
Layer 1
10
121.354500
20
63.846250
11
121.764000
21
63.259000
0
LINE
8
Layer 1
10
121.764000
20
63.259000
11
122.022750
21
62.509750
0
LINE
8
Layer 1
10
122.022750
20
62.509750
11
122.109000
21
61.600000
0
LINE
8
Layer 1
10
122.109000
20
61.600000
11
122.109000
21
61.600000
0
LINE
8
Layer 1
10
122.109000
20
61.600000
11
122.022750
21
60.694000
0
LINE
8
Layer 1
10
122.022750
20
60.694000
11
121.764000
21
59.944000
0
LINE
8
Layer 1
10
121.764000
20
59.944000
11
121.354500
21
59.354500
0
LINE
8
Layer 1
10
121.354500
20
59.354500
11
120.816000
21
58.930000
0
LINE
8
Layer 1
10
120.816000
20
58.930000
11
120.171750
21
58.673500
0
LINE
8
Layer 1
10
120.171750
20
58.673500
11
119.445000
21
58.588000
0
LINE
8
Layer 1
10
119.445000
20
58.588000
11
119.445000
21
58.588000
0
LINE
8
Layer 1
10
119.421000
20
59.404000
11
119.421000
21
59.404000
0
LINE
8
Layer 1
10
119.421000
20
59.404000
11
119.937000
21
59.470750
0
LINE
8
Layer 1
10
119.937000
20
59.470750
11
120.369000
21
59.671000
0
LINE
8
Layer 1
10
120.369000
20
59.671000
11
120.960000
21
60.430000
0
LINE
8
Layer 1
10
120.960000
20
60.430000
11
121.161000
21
61.600000
0
LINE
8
Layer 1
10
121.161000
20
61.600000
11
121.161000
21
61.600000
0
LINE
8
Layer 1
10
121.161000
20
61.600000
11
121.054500
21
62.517250
0
LINE
8
Layer 1
10
121.054500
20
62.517250
11
120.735000
21
63.217000
0
LINE
8
Layer 1
10
120.735000
20
63.217000
11
120.205500
21
63.660250
0
LINE
8
Layer 1
10
120.205500
20
63.660250
11
119.469000
21
63.808000
0
LINE
8
Layer 1
10
119.469000
20
63.808000
11
119.469000
21
63.808000
0
LINE
8
Layer 1
10
119.469000
20
63.808000
11
118.949250
21
63.741250
0
LINE
8
Layer 1
10
118.949250
20
63.741250
11
118.518000
21
63.541000
0
LINE
8
Layer 1
10
118.518000
20
63.541000
11
117.930000
21
62.779000
0
LINE
8
Layer 1
10
117.930000
20
62.779000
11
117.729000
21
61.600000
0
LINE
8
Layer 1
10
117.729000
20
61.600000
11
117.729000
21
61.600000
0
LINE
8
Layer 1
10
117.729000
20
61.600000
11
117.836250
21
60.691750
0
LINE
8
Layer 1
10
117.836250
20
60.691750
11
118.158000
21
59.995000
0
LINE
8
Layer 1
10
118.158000
20
59.995000
11
118.688250
21
59.551750
0
LINE
8
Layer 1
10
118.688250
20
59.551750
11
119.421000
21
59.404000
0
LINE
8
Layer 1
10
119.421000
20
59.404000
11
119.421000
21
59.404000
0
LINE
8
Layer 1
10
128.931000
20
58.732000
11
128.007000
21
58.732000
0
LINE
8
Layer 1
10
128.007000
20
58.732000
11
128.007000
21
62.104000
0
LINE
8
Layer 1
10
128.007000
20
62.104000
11
127.908750
21
62.827750
0
LINE
8
Layer 1
10
127.908750
20
62.827750
11
127.614000
21
63.355000
0
LINE
8
Layer 1
10
127.614000
20
63.355000
11
127.149750
21
63.676750
0
LINE
8
Layer 1
10
127.149750
20
63.676750
11
126.543000
21
63.784000
0
LINE
8
Layer 1
10
126.543000
20
63.784000
11
126.543000
21
63.784000
0
LINE
8
Layer 1
10
126.543000
20
63.784000
11
126.061500
21
63.713500
0
LINE
8
Layer 1
10
126.061500
20
63.713500
11
125.649000
21
63.502000
0
LINE
8
Layer 1
10
125.649000
20
63.502000
11
125.067000
21
62.695000
0
LINE
8
Layer 1
10
125.067000
20
62.695000
11
124.863000
21
61.444000
0
LINE
8
Layer 1
10
124.863000
20
61.444000
11
124.863000
21
61.444000
0
LINE
8
Layer 1
10
124.863000
20
61.444000
11
124.503000
21
61.444000
0
LINE
8
Layer 1
10
124.503000
20
61.444000
11
124.569000
21
62.372500
0
LINE
8
Layer 1
10
124.569000
20
62.372500
11
124.767000
21
63.154000
0
LINE
8
Layer 1
10
124.767000
20
63.154000
11
125.091750
21
63.778750
0
LINE
8
Layer 1
10
125.091750
20
63.778750
11
125.538000
21
64.237000
0
LINE
8
Layer 1
10
125.538000
20
64.237000
11
126.099750
21
64.518250
0
LINE
8
Layer 1
10
126.099750
20
64.518250
11
126.771000
21
64.612000
0
LINE
8
Layer 1
10
126.771000
20
64.612000
11
126.771000
21
64.612000
0
LINE
8
Layer 1
10
126.771000
20
64.612000
11
127.400250
21
64.536250
0
LINE
8
Layer 1
10
127.400250
20
64.536250
11
127.932000
21
64.309000
0
LINE
8
Layer 1
10
127.932000
20
64.309000
11
128.358750
21
63.940750
0
LINE
8
Layer 1
10
128.358750
20
63.940750
11
128.673000
21
63.442000
0
LINE
8
Layer 1
10
128.673000
20
63.442000
11
128.931000
21
62.104000
0
LINE
8
Layer 1
10
128.931000
20
62.104000
11
128.931000
21
62.104000
0
LINE
8
Layer 1
10
128.931000
20
62.104000
11
128.931000
21
58.732000
0
LINE
8
Layer 1
10
128.931000
20
58.732000
11
128.931000
21
58.732000
0
LINE
8
Layer 1
10
124.863000
20
58.732000
11
123.927000
21
58.732000
0
LINE
8
Layer 1
10
123.927000
20
58.732000
11
123.927000
21
64.468000
0
LINE
8
Layer 1
10
123.927000
20
64.468000
11
124.731000
21
64.468000
0
LINE
8
Layer 1
10
124.731000
20
64.468000
11
124.863000
21
63.148000
0
LINE
8
Layer 1
10
124.863000
20
63.148000
11
124.863000
21
58.732000
0
LINE
8
Layer 1
10
124.863000
20
58.732000
11
124.863000
21
58.732000
0
LINE
8
Layer 1
10
132.933000
20
58.588000
11
132.933000
21
58.588000
0
LINE
8
Layer 1
10
132.933000
20
58.588000
11
132.093000
21
58.768000
0
LINE
8
Layer 1
10
132.093000
20
58.768000
11
131.505000
21
59.308000
0
LINE
8
Layer 1
10
131.505000
20
59.308000
11
131.289000
21
60.208000
0
LINE
8
Layer 1
10
131.289000
20
60.208000
11
131.289000
21
60.208000
0
LINE
8
Layer 1
10
131.289000
20
60.208000
11
131.289000
21
66.064000
0
LINE
8
Layer 1
10
131.289000
20
66.064000
11
132.213000
21
66.064000
0
LINE
8
Layer 1
10
132.213000
20
66.064000
11
132.213000
21
60.232000
0
LINE
8
Layer 1
10
132.213000
20
60.232000
11
132.420000
21
59.566000
0
LINE
8
Layer 1
10
132.420000
20
59.566000
11
133.041000
21
59.344000
0
LINE
8
Layer 1
10
133.041000
20
59.344000
11
133.041000
21
59.344000
0
LINE
8
Layer 1
10
133.041000
20
59.344000
11
133.518000
21
59.398000
0
LINE
8
Layer 1
10
133.518000
20
59.398000
11
134.037000
21
59.560000
0
LINE
8
Layer 1
10
134.037000
20
59.560000
11
134.037000
21
59.560000
0
LINE
8
Layer 1
10
134.037000
20
59.560000
11
134.169000
21
58.888000
0
LINE
8
Layer 1
10
134.169000
20
58.888000
11
133.560000
21
58.672000
0
LINE
8
Layer 1
10
133.560000
20
58.672000
11
132.933000
21
58.588000
0
LINE
8
Layer 1
10
132.933000
20
58.588000
11
132.933000
21
58.588000
0
LINE
8
Layer 1
10
134.025000
20
63.820000
11
130.365000
21
63.820000
0
LINE
8
Layer 1
10
130.365000
20
63.820000
11
130.365000
21
64.468000
0
LINE
8
Layer 1
10
130.365000
20
64.468000
11
134.025000
21
64.468000
0
LINE
8
Layer 1
10
134.025000
20
64.468000
11
134.025000
21
63.820000
0
LINE
8
Layer 1
10
134.025000
20
63.820000
11
134.025000
21
63.820000
0
LINE
8
Layer 1
10
235.000000
20
132.500000
11
240.000000
21
132.500000
0
LINE
8
Layer 1
10
240.000000
20
132.500000
11
240.000000
21
152.500000
0
LINE
8
Layer 1
10
240.000000
20
152.500000
11
235.000000
21
152.500000
0
LINE
8
Layer 1
10
235.000000
20
152.500000
11
235.000000
21
172.500000
0
LINE
8
Layer 1
10
235.000000
20
172.500000
11
240.000000
21
172.500000
0
LINE
8
Layer 1
10
240.000000
20
172.500000
11
240.000000
21
192.500000
0
LINE
8
Layer 1
10
240.000000
20
192.500000
11
235.000000
21
192.500000
0
LINE
8
Layer 1
10
235.000000
20
192.500000
11
235.000000
21
210.000000
0
LINE
8
Layer 1
10
235.000000
20
210.000000
11
5.000000
21
210.000000
0
LINE
8
Layer 1
10
5.000000
20
210.000000
11
5.000000
21
192.500000
0
LINE
8
Layer 1
10
5.000000
20
192.500000
11
0.000000
21
192.500000
0
LINE
8
Layer 1
10
0.000000
20
192.500000
11
0.000000
21
172.500000
0
LINE
8
Layer 1
10
0.000000
20
172.500000
11
5.000000
21
172.500000
0
LINE
8
Layer 1
10
5.000000
20
172.500000
11
5.000000
21
152.500000
0
LINE
8
Layer 1
10
5.000000
20
152.500000
11
0.000000
21
152.500000
0
LINE
8
Layer 1
10
0.000000
20
152.500000
11
0.000000
21
132.500000
0
LINE
8
Layer 1
10
0.000000
20
132.500000
11
5.000000
21
132.500000
0
LINE
8
Layer 1
10
5.000000
20
132.500000
11
5.000000
21
115.000000
0
LINE
8
Layer 1
10
5.000000
20
115.000000
11
5.000000
21
110.000000
0
LINE
8
Layer 1
10
5.000000
20
110.000000
11
10.000000
21
110.000000
0
LINE
8
Layer 1
10
10.000000
20
110.000000
11
10.000000
21
115.000000
0
LINE
8
Layer 1
10
10.000000
20
115.000000
11
30.000000
21
115.000000
0
LINE
8
Layer 1
10
30.000000
20
115.000000
11
30.000000
21
110.000000
0
LINE
8
Layer 1
10
30.000000
20
110.000000
11
50.000000
21
110.000000
0
LINE
8
Layer 1
10
50.000000
20
110.000000
11
50.000000
21
115.000000
0
LINE
8
Layer 1
10
50.000000
20
115.000000
11
70.000000
21
115.000000
0
LINE
8
Layer 1
10
70.000000
20
115.000000
11
70.000000
21
110.000000
0
LINE
8
Layer 1
10
70.000000
20
110.000000
11
90.000000
21
110.000000
0
LINE
8
Layer 1
10
90.000000
20
110.000000
11
90.000000
21
115.000000
0
LINE
8
Layer 1
10
90.000000
20
115.000000
11
110.000000
21
115.000000
0
LINE
8
Layer 1
10
110.000000
20
115.000000
11
110.000000
21
110.000000
0
LINE
8
Layer 1
10
110.000000
20
110.000000
11
130.000000
21
110.000000
0
LINE
8
Layer 1
10
130.000000
20
110.000000
11
130.000000
21
115.000000
0
LINE
8
Layer 1
10
130.000000
20
115.000000
11
150.000000
21
115.000000
0
LINE
8
Layer 1
10
150.000000
20
115.000000
11
150.000000
21
110.000000
0
LINE
8
Layer 1
10
150.000000
20
110.000000
11
170.000000
21
110.000000
0
LINE
8
Layer 1
10
170.000000
20
110.000000
11
170.000000
21
115.000000
0
LINE
8
Layer 1
10
170.000000
20
115.000000
11
190.000000
21
115.000000
0
LINE
8
Layer 1
10
190.000000
20
115.000000
11
190.000000
21
110.000000
0
LINE
8
Layer 1
10
190.000000
20
110.000000
11
210.000000
21
110.000000
0
LINE
8
Layer 1
10
210.000000
20
110.000000
11
210.000000
21
115.000000
0
LINE
8
Layer 1
10
210.000000
20
115.000000
11
230.000000
21
115.000000
0
LINE
8
Layer 1
10
230.000000
20
115.000000
11
230.000000
21
110.000000
0
LINE
8
Layer 1
10
230.000000
20
110.000000
11
235.000000
21
110.000000
0
LINE
8
Layer 1
10
235.000000
20
110.000000
11
235.000000
21
115.000000
0
LINE
8
Layer 1
10
235.000000
20
115.000000
11
235.000000
21
132.500000
0
LINE
8
Layer 1
10
110.523000
20
158.408000
11
107.703000
21
158.408000
0
LINE
8
Layer 1
10
107.703000
20
158.408000
11
107.703000
21
165.944000
0
LINE
8
Layer 1
10
107.703000
20
165.944000
11
110.523000
21
165.944000
0
LINE
8
Layer 1
10
110.523000
20
165.944000
11
111.280500
21
165.875750
0
LINE
8
Layer 1
10
111.280500
20
165.875750
11
111.897000
21
165.671000
0
LINE
8
Layer 1
10
111.897000
20
165.671000
11
112.374000
21
165.354500
0
LINE
8
Layer 1
10
112.374000
20
165.354500
11
112.713000
21
164.951000
0
LINE
8
Layer 1
10
112.713000
20
164.951000
11
112.983000
21
163.976000
0
LINE
8
Layer 1
10
112.983000
20
163.976000
11
112.983000
21
163.976000
0
LINE
8
Layer 1
10
112.983000
20
163.976000
11
112.893750
21
163.370750
0
LINE
8
Layer 1
10
112.893750
20
163.370750
11
112.626000
21
162.851000
0
LINE
8
Layer 1
10
112.626000
20
162.851000
11
112.179750
21
162.449750
0
LINE
8
Layer 1
10
112.179750
20
162.449750
11
111.555000
21
162.200000
0
LINE
8
Layer 1
10
111.555000
20
162.200000
11
111.555000
21
162.200000
0
LINE
8
Layer 1
10
111.555000
20
162.200000
11
112.368000
21
161.873000
0
LINE
8
Layer 1
10
112.368000
20
161.873000
11
112.917000
21
161.249000
0
LINE
8
Layer 1
10
112.917000
20
161.249000
11
113.115000
21
160.460000
0
LINE
8
Layer 1
10
113.115000
20
160.460000
11
113.115000
21
160.460000
0
LINE
8
Layer 1
10
113.115000
20
160.460000
11
112.986000
21
159.710000
0
LINE
8
Layer 1
10
112.986000
20
159.710000
11
112.557000
21
159.050000
0
LINE
8
Layer 1
10
112.557000
20
159.050000
11
111.759000
21
158.582000
0
LINE
8
Layer 1
10
111.759000
20
158.582000
11
110.523000
21
158.408000
0
LINE
8
Layer 1
10
110.523000
20
158.408000
11
110.523000
21
158.408000
0
LINE
8
Layer 1
10
110.523000
20
158.408000
11
110.523000
21
158.408000
0
LINE
8
Layer 1
10
108.639000
20
161.768000
11
108.639000
21
159.224000
0
LINE
8
Layer 1
10
108.639000
20
159.224000
11
110.511000
21
159.224000
0
LINE
8
Layer 1
10
110.511000
20
159.224000
11
111.248250
21
159.314000
0
LINE
8
Layer 1
10
111.248250
20
159.314000
11
111.744000
21
159.584000
0
LINE
8
Layer 1
10
111.744000
20
159.584000
11
112.025250
21
159.995000
0
LINE
8
Layer 1
10
112.025250
20
159.995000
11
112.119000
21
160.508000
0
LINE
8
Layer 1
10
112.119000
20
160.508000
11
112.119000
21
160.508000
0
LINE
8
Layer 1
10
112.119000
20
160.508000
11
112.017000
21
161.021750
0
LINE
8
Layer 1
10
112.017000
20
161.021750
11
111.711000
21
161.423000
0
LINE
8
Layer 1
10
111.711000
20
161.423000
11
111.207000
21
161.681750
0
LINE
8
Layer 1
10
111.207000
20
161.681750
11
110.511000
21
161.768000
0
LINE
8
Layer 1
10
110.511000
20
161.768000
11
110.511000
21
161.768000
0
LINE
8
Layer 1
10
110.511000
20
161.768000
11
108.639000
21
161.768000
0
LINE
8
Layer 1
10
108.639000
20
161.768000
11
108.639000
21
161.768000
0
LINE
8
Layer 1
10
110.499000
20
165.140000
11
108.639000
21
165.140000
0
LINE
8
Layer 1
10
108.639000
20
165.140000
11
108.639000
21
162.572000
0
LINE
8
Layer 1
10
108.639000
20
162.572000
11
110.487000
21
162.572000
0
LINE
8
Layer 1
10
110.487000
20
162.572000
11
111.117750
21
162.658250
0
LINE
8
Layer 1
10
111.117750
20
162.658250
11
111.606000
21
162.917000
0
LINE
8
Layer 1
10
111.606000
20
162.917000
11
111.918750
21
163.333250
0
LINE
8
Layer 1
10
111.918750
20
163.333250
11
112.023000
21
163.892000
0
LINE
8
Layer 1
10
112.023000
20
163.892000
11
112.023000
21
163.892000
0
LINE
8
Layer 1
10
112.023000
20
163.892000
11
111.921750
21
164.415500
0
LINE
8
Layer 1
10
111.921750
20
164.415500
11
111.618000
21
164.810000
0
LINE
8
Layer 1
10
111.618000
20
164.810000
11
111.135750
21
165.057500
0
LINE
8
Layer 1
10
111.135750
20
165.057500
11
110.499000
21
165.140000
0
LINE
8
Layer 1
10
110.499000
20
165.140000
11
110.499000
21
165.140000
0
LINE
8
Layer 1
10
110.499000
20
165.140000
11
110.499000
21
165.140000
0
LINE
8
Layer 1
10
119.529000
20
158.408000
11
118.713000
21
158.408000
0
LINE
8
Layer 1
10
118.713000
20
158.408000
11
118.593000
21
159.668000
0
LINE
8
Layer 1
10
118.593000
20
159.668000
11
118.593000
21
162.128000
0
LINE
8
Layer 1
10
118.593000
20
162.128000
11
118.510500
21
162.793250
0
LINE
8
Layer 1
10
118.510500
20
162.793250
11
118.263000
21
163.241000
0
LINE
8
Layer 1
10
118.263000
20
163.241000
11
117.850500
21
163.495250
0
LINE
8
Layer 1
10
117.850500
20
163.495250
11
117.273000
21
163.580000
0
LINE
8
Layer 1
10
117.273000
20
163.580000
11
117.273000
21
163.580000
0
LINE
8
Layer 1
10
117.273000
20
163.580000
11
116.598000
21
163.472000
0
LINE
8
Layer 1
10
116.598000
20
163.472000
11
116.118000
21
163.139000
0
LINE
8
Layer 1
10
116.118000
20
163.139000
11
115.941000
21
162.560000
0
LINE
8
Layer 1
10
115.941000
20
162.560000
11
115.941000
21
162.560000
0
LINE
8
Layer 1
10
115.941000
20
162.560000
11
114.897000
21
162.560000
0
LINE
8
Layer 1
10
114.897000
20
162.560000
11
114.973500
21
163.123250
0
LINE
8
Layer 1
10
114.973500
20
163.123250
11
115.203000
21
163.565000
0
LINE
8
Layer 1
10
115.203000
20
163.565000
11
115.566750
21
163.893500
0
LINE
8
Layer 1
10
115.566750
20
163.893500
11
116.046000
21
164.117000
0
LINE
8
Layer 1
10
116.046000
20
164.117000
11
117.273000
21
164.288000
0
LINE
8
Layer 1
10
117.273000
20
164.288000
11
117.273000
21
164.288000
0
LINE
8
Layer 1
10
117.273000
20
164.288000
11
118.443000
21
164.066000
0
LINE
8
Layer 1
10
118.443000
20
164.066000
11
118.897500
21
163.778750
0
LINE
8
Layer 1
10
118.897500
20
163.778750
11
119.241000
21
163.361000
0
LINE
8
Layer 1
10
119.241000
20
163.361000
11
119.457000
21
162.805250
0
LINE
8
Layer 1
10
119.457000
20
162.805250
11
119.529000
21
162.104000
0
LINE
8
Layer 1
10
119.529000
20
162.104000
11
119.529000
21
162.104000
0
LINE
8
Layer 1
10
119.529000
20
162.104000
11
119.529000
21
158.408000
0
LINE
8
Layer 1
10
119.529000
20
158.408000
11
119.529000
21
158.408000
0
LINE
8
Layer 1
10
116.757000
20
158.264000
11
116.757000
21
158.264000
0
LINE
8
Layer 1
10
116.757000
20
158.264000
11
115.587000
21
158.516000
0
LINE
8
Layer 1
10
115.587000
20
158.516000
11
114.897000
21
159.170000
0
LINE
8
Layer 1
10
114.897000
20
159.170000
11
114.669000
21
160.016000
0
LINE
8
Layer 1
10
114.669000
20
160.016000
11
114.669000
21
160.016000
0
LINE
8
Layer 1
10
114.669000
20
160.016000
11
114.741750
21
160.544000
0
LINE
8
Layer 1
10
114.741750
20
160.544000
11
114.960000
21
160.964000
0
LINE
8
Layer 1
10
114.960000
20
160.964000
11
115.755000
21
161.501000
0
LINE
8
Layer 1
10
115.755000
20
161.501000
11
116.889000
21
161.672000
0
LINE
8
Layer 1
10
116.889000
20
161.672000
11
116.889000
21
161.672000
0
LINE
8
Layer 1
10
116.889000
20
161.672000
11
117.792000
21
161.582000
0
LINE
8
Layer 1
10
117.792000
20
161.582000
11
118.677000
21
161.336000
0
LINE
8
Layer 1
10
118.677000
20
161.336000
11
118.677000
21
161.336000
0
LINE
8
Layer 1
10
118.677000
20
161.336000
11
118.677000
21
160.748000
0
LINE
8
Layer 1
10
118.677000
20
160.748000
11
117.864000
21
160.976000
0
LINE
8
Layer 1
10
117.864000
20
160.976000
11
117.033000
21
161.060000
0
LINE
8
Layer 1
10
117.033000
20
161.060000
11
117.033000
21
161.060000
0
LINE
8
Layer 1
10
117.033000
20
161.060000
11
116.061000
21
160.823000
0
LINE
8
Layer 1
10
116.061000
20
160.823000
11
115.764000
21
160.502750
0
LINE
8
Layer 1
10
115.764000
20
160.502750
11
115.665000
21
160.016000
0
LINE
8
Layer 1
10
115.665000
20
160.016000
11
115.665000
21
160.016000
0
LINE
8
Layer 1
10
115.665000
20
160.016000
11
115.740750
21
159.626000
0
LINE
8
Layer 1
10
115.740750
20
159.626000
11
115.968000
21
159.296000
0
LINE
8
Layer 1
10
115.968000
20
159.296000
11
116.361750
21
159.071000
0
LINE
8
Layer 1
10
116.361750
20
159.071000
11
116.937000
21
158.996000
0
LINE
8
Layer 1
10
116.937000
20
158.996000
11
116.937000
21
158.996000
0
LINE
8
Layer 1
10
116.937000
20
158.996000
11
117.780000
21
159.215000
0
LINE
8
Layer 1
10
117.780000
20
159.215000
11
118.374000
21
159.764000
0
LINE
8
Layer 1
10
118.374000
20
159.764000
11
118.593000
21
160.424000
0
LINE
8
Layer 1
10
118.593000
20
160.424000
11
118.593000
21
160.424000
0
LINE
8
Layer 1
10
118.593000
20
160.424000
11
118.821000
21
160.424000
0
LINE
8
Layer 1
10
118.821000
20
160.424000
11
118.572000
21
159.356000
0
LINE
8
Layer 1
10
118.572000
20
159.356000
11
117.861000
21
158.564000
0
LINE
8
Layer 1
10
117.861000
20
158.564000
11
117.354000
21
158.339000
0
LINE
8
Layer 1
10
117.354000
20
158.339000
11
116.757000
21
158.264000
0
LINE
8
Layer 1
10
116.757000
20
158.264000
11
116.757000
21
158.264000
0
LINE
8
Layer 1
10
123.783000
20
158.264000
11
123.783000
21
158.264000
0
LINE
8
Layer 1
10
123.783000
20
158.264000
11
123.116250
21
158.357000
0
LINE
8
Layer 1
10
123.116250
20
158.357000
11
122.496000
21
158.636000
0
LINE
8
Layer 1
10
122.496000
20
158.636000
11
121.956750
21
159.084500
0
LINE
8
Layer 1
10
121.956750
20
159.084500
11
121.533000
21
159.686000
0
LINE
8
Layer 1
10
121.533000
20
159.686000
11
121.258500
21
160.425500
0
LINE
8
Layer 1
10
121.258500
20
160.425500
11
121.167000
21
161.288000
0
LINE
8
Layer 1
10
121.167000
20
161.288000
11
121.167000
21
161.288000
0
LINE
8
Layer 1
10
121.167000
20
161.288000
11
121.258500
21
162.167000
0
LINE
8
Layer 1
10
121.258500
20
162.167000
11
121.533000
21
162.908000
0
LINE
8
Layer 1
10
121.533000
20
162.908000
11
121.956750
21
163.500500
0
LINE
8
Layer 1
10
121.956750
20
163.500500
11
122.496000
21
163.934000
0
LINE
8
Layer 1
10
122.496000
20
163.934000
11
123.116250
21
164.199500
0
LINE
8
Layer 1
10
123.116250
20
164.199500
11
123.783000
21
164.288000
0
LINE
8
Layer 1
10
123.783000
20
164.288000
11
123.783000
21
164.288000
0
LINE
8
Layer 1
10
123.783000
20
164.288000
11
124.656000
21
164.141000
0
LINE
8
Layer 1
10
124.656000
20
164.141000
11
125.331000
21
163.736000
0
LINE
8
Layer 1
10
125.331000
20
163.736000
11
125.808000
21
163.151000
0
LINE
8
Layer 1
10
125.808000
20
163.151000
11
126.087000
21
162.464000
0
LINE
8
Layer 1
10
126.087000
20
162.464000
11
126.087000
21
162.464000
0
LINE
8
Layer 1
10
126.087000
20
162.464000
11
125.127000
21
162.380000
0
LINE
8
Layer 1
10
125.127000
20
162.380000
11
124.626000
21
163.169000
0
LINE
8
Layer 1
10
124.626000
20
163.169000
11
124.236750
21
163.387250
0
LINE
8
Layer 1
10
124.236750
20
163.387250
11
123.771000
21
163.460000
0
LINE
8
Layer 1
10
123.771000
20
163.460000
11
123.771000
21
163.460000
0
LINE
8
Layer 1
10
123.771000
20
163.460000
11
122.970000
21
163.217000
0
LINE
8
Layer 1
10
122.970000
20
163.217000
11
122.361000
21
162.491000
0
LINE
8
Layer 1
10
122.361000
20
162.491000
11
122.127000
21
161.288000
0
LINE
8
Layer 1
10
122.127000
20
161.288000
11
122.127000
21
161.288000
0
LINE
8
Layer 1
10
122.127000
20
161.288000
11
122.340000
21
160.133000
0
LINE
8
Layer 1
10
122.340000
20
160.133000
11
122.925000
21
159.374000
0
LINE
8
Layer 1
10
122.925000
20
159.374000
11
123.771000
21
159.104000
0
LINE
8
Layer 1
10
123.771000
20
159.104000
11
123.771000
21
159.104000
0
LINE
8
Layer 1
10
123.771000
20
159.104000
11
124.356750
21
159.185750
0
LINE
8
Layer 1
10
124.356750
20
159.185750
11
124.782000
21
159.431000
0
LINE
8
Layer 1
10
124.782000
20
159.431000
11
125.040750
21
159.821750
0
LINE
8
Layer 1
10
125.040750
20
159.821750
11
125.127000
21
160.340000
0
LINE
8
Layer 1
10
125.127000
20
160.340000
11
125.127000
21
160.340000
0
LINE
8
Layer 1
10
125.127000
20
160.340000
11
126.087000
21
160.340000
0
LINE
8
Layer 1
10
126.087000
20
160.340000
11
126.016500
21
159.773000
0
LINE
8
Layer 1
10
126.016500
20
159.773000
11
125.805000
21
159.272000
0
LINE
8
Layer 1
10
125.805000
20
159.272000
11
125.463750
21
158.853500
0
LINE
8
Layer 1
10
125.463750
20
158.853500
11
125.004000
21
158.534000
0
LINE
8
Layer 1
10
125.004000
20
158.534000
11
124.439250
21
158.331500
0
LINE
8
Layer 1
10
124.439250
20
158.331500
11
123.783000
21
158.264000
0
LINE
8
Layer 1
10
123.783000
20
158.264000
11
123.783000
21
158.264000
0
LINE
8
Layer 1
10
128.895000
20
158.408000
11
127.959000
21
158.408000
0
LINE
8
Layer 1
10
127.959000
20
158.408000
11
127.959000
21
166.592000
0
LINE
8
Layer 1
10
127.959000
20
166.592000
11
128.895000
21
166.592000
0
LINE
8
Layer 1
10
128.895000
20
166.592000
11
128.895000
21
158.408000
0
LINE
8
Layer 1
10
128.895000
20
158.408000
11
128.895000
21
158.408000
0
LINE
8
Layer 1
10
128.751000
20
160.700000
11
128.751000
21
161.696000
0
LINE
8
Layer 1
10
128.751000
20
161.696000
11
131.679000
21
164.144000
0
LINE
8
Layer 1
10
131.679000
20
164.144000
11
132.987000
21
164.144000
0
LINE
8
Layer 1
10
132.987000
20
164.144000
11
128.751000
21
160.700000
0
LINE
8
Layer 1
10
128.751000
20
160.700000
11
128.751000
21
160.700000
0
LINE
8
Layer 1
10
133.119000
20
158.408000
11
131.967000
21
158.408000
0
LINE
8
Layer 1
10
131.967000
20
158.408000
11
129.243000
21
162.032000
0
LINE
8
Layer 1
10
129.243000
20
162.032000
11
130.191000
21
162.200000
0
LINE
8
Layer 1
10
130.191000
20
162.200000
11
133.119000
21
158.408000
0
LINE
8
Layer 1
10
133.119000
20
158.408000
11
133.119000
21
158.408000
0
LINE
8
Layer 1
10
270.000000
20
15.000000
11
270.000000
21
10.000000
0
LINE
8
Layer 1
10
270.000000
20
10.000000
11
290.000000
21
10.000000
0
LINE
8
Layer 1
10
290.000000
20
10.000000
11
290.000000
21
15.000000
0
LINE
8
Layer 1
10
290.000000
20
15.000000
11
310.000000
21
15.000000
0
LINE
8
Layer 1
10
310.000000
20
15.000000
11
310.000000
21
10.000000
0
LINE
8
Layer 1
10
310.000000
20
10.000000
11
330.000000
21
10.000000
0
LINE
8
Layer 1
10
330.000000
20
10.000000
11
330.000000
21
15.000000
0
LINE
8
Layer 1
10
330.000000
20
15.000000
11
350.000000
21
15.000000
0
LINE
8
Layer 1
10
350.000000
20
15.000000
11
350.000000
21
10.000000
0
LINE
8
Layer 1
10
350.000000
20
10.000000
11
370.000000
21
10.000000
0
LINE
8
Layer 1
10
370.000000
20
10.000000
11
370.000000
21
15.000000
0
LINE
8
Layer 1
10
370.000000
20
15.000000
11
390.000000
21
15.000000
0
LINE
8
Layer 1
10
390.000000
20
15.000000
11
390.000000
21
10.000000
0
LINE
8
Layer 1
10
390.000000
20
10.000000
11
410.000000
21
10.000000
0
LINE
8
Layer 1
10
410.000000
20
10.000000
11
410.000000
21
15.000000
0
LINE
8
Layer 1
10
410.000000
20
15.000000
11
430.000000
21
15.000000
0
LINE
8
Layer 1
10
430.000000
20
15.000000
11
430.000000
21
10.000000
0
LINE
8
Layer 1
10
430.000000
20
10.000000
11
450.000000
21
10.000000
0
LINE
8
Layer 1
10
450.000000
20
10.000000
11
450.000000
21
15.000000
0
LINE
8
Layer 1
10
450.000000
20
15.000000
11
470.000000
21
15.000000
0
LINE
8
Layer 1
10
470.000000
20
15.000000
11
470.000000
21
10.000000
0
LINE
8
Layer 1
10
470.000000
20
10.000000
11
475.000000
21
10.000000
0
LINE
8
Layer 1
10
475.000000
20
10.000000
11
480.000000
21
10.000000
0
LINE
8
Layer 1
10
480.000000
20
10.000000
11
480.000000
21
15.000000
0
LINE
8
Layer 1
10
480.000000
20
15.000000
11
480.000000
21
32.500000
0
LINE
8
Layer 1
10
480.000000
20
32.500000
11
475.000000
21
32.500000
0
LINE
8
Layer 1
10
475.000000
20
32.500000
11
475.000000
21
52.500000
0
LINE
8
Layer 1
10
475.000000
20
52.500000
11
480.000000
21
52.500000
0
LINE
8
Layer 1
10
480.000000
20
52.500000
11
480.000000
21
72.500000
0
LINE
8
Layer 1
10
480.000000
20
72.500000
11
475.000000
21
72.500000
0
LINE
8
Layer 1
10
475.000000
20
72.500000
11
475.000000
21
92.500000
0
LINE
8
Layer 1
10
475.000000
20
92.500000
11
480.000000
21
92.500000
0
LINE
8
Layer 1
10
480.000000
20
92.500000
11
480.000000
21
110.000000
0
LINE
8
Layer 1
10
480.000000
20
110.000000
11
475.000000
21
110.000000
0
LINE
8
Layer 1
10
475.000000
20
110.000000
11
245.000000
21
110.000000
0
LINE
8
Layer 1
10
245.000000
20
110.000000
11
240.000000
21
110.000000
0
LINE
8
Layer 1
10
240.000000
20
110.000000
11
240.000000
21
92.500000
0
LINE
8
Layer 1
10
240.000000
20
92.500000
11
245.000000
21
92.500000
0
LINE
8
Layer 1
10
245.000000
20
92.500000
11
245.000000
21
72.500000
0
LINE
8
Layer 1
10
245.000000
20
72.500000
11
240.000000
21
72.500000
0
LINE
8
Layer 1
10
240.000000
20
72.500000
11
240.000000
21
52.500000
0
LINE
8
Layer 1
10
240.000000
20
52.500000
11
245.000000
21
52.500000
0
LINE
8
Layer 1
10
245.000000
20
52.500000
11
245.000000
21
32.500000
0
LINE
8
Layer 1
10
245.000000
20
32.500000
11
240.000000
21
32.500000
0
LINE
8
Layer 1
10
240.000000
20
32.500000
11
240.000000
21
15.000000
0
LINE
8
Layer 1
10
240.000000
20
15.000000
11
240.000000
21
10.000000
0
LINE
8
Layer 1
10
240.000000
20
10.000000
11
245.000000
21
10.000000
0
LINE
8
Layer 1
10
245.000000
20
10.000000
11
250.000000
21
10.000000
0
LINE
8
Layer 1
10
250.000000
20
10.000000
11
250.000000
21
15.000000
0
LINE
8
Layer 1
10
250.000000
20
15.000000
11
270.000000
21
15.000000
0
LINE
8
Layer 1
10
351.015000
20
65.902000
11
351.951000
21
65.902000
0
LINE
8
Layer 1
10
351.951000
20
65.902000
11
351.951000
21
59.182000
0
LINE
8
Layer 1
10
351.951000
20
59.182000
11
355.311000
21
59.182000
0
LINE
8
Layer 1
10
355.311000
20
59.182000
11
355.311000
21
58.366000
0
LINE
8
Layer 1
10
355.311000
20
58.366000
11
351.015000
21
58.366000
0
LINE
8
Layer 1
10
351.015000
20
58.366000
11
351.015000
21
65.902000
0
LINE
8
Layer 1
10
351.015000
20
65.902000
11
351.015000
21
65.902000
0
LINE
8
Layer 1
10
358.617000
20
58.222000
11
358.617000
21
58.222000
0
LINE
8
Layer 1
10
358.617000
20
58.222000
11
357.912750
21
58.317250
0
LINE
8
Layer 1
10
357.912750
20
58.317250
11
357.288000
21
58.603000
0
LINE
8
Layer 1
10
357.288000
20
58.603000
11
356.764500
21
59.058250
0
LINE
8
Layer 1
10
356.764500
20
59.058250
11
356.364000
21
59.662000
0
LINE
8
Layer 1
10
356.364000
20
59.662000
11
356.109750
21
60.391000
0
LINE
8
Layer 1
10
356.109750
20
60.391000
11
356.025000
21
61.222000
0
LINE
8
Layer 1
10
356.025000
20
61.222000
11
356.025000
21
61.222000
0
LINE
8
Layer 1
10
356.025000
20
61.222000
11
356.109000
21
62.098000
0
LINE
8
Layer 1
10
356.109000
20
62.098000
11
356.361000
21
62.842000
0
LINE
8
Layer 1
10
356.361000
20
62.842000
11
356.759250
21
63.441250
0
LINE
8
Layer 1
10
356.759250
20
63.441250
11
357.282000
21
63.883000
0
LINE
8
Layer 1
10
357.282000
20
63.883000
11
357.908250
21
64.155250
0
LINE
8
Layer 1
10
357.908250
20
64.155250
11
358.617000
21
64.246000
0
LINE
8
Layer 1
10
358.617000
20
64.246000
11
358.617000
21
64.246000
0
LINE
8
Layer 1
10
358.617000
20
64.246000
11
359.223000
21
64.180000
0
LINE
8
Layer 1
10
359.223000
20
64.180000
11
359.733000
21
63.982000
0
LINE
8
Layer 1
10
359.733000
20
63.982000
11
360.477000
21
63.268000
0
LINE
8
Layer 1
10
360.477000
20
63.268000
11
360.870000
21
62.251000
0
LINE
8
Layer 1
10
360.870000
20
62.251000
11
360.933000
21
61.078000
0
LINE
8
Layer 1
10
360.933000
20
61.078000
11
360.933000
21
61.078000
0
LINE
8
Layer 1
10
360.933000
20
61.078000
11
356.781000
21
61.078000
0
LINE
8
Layer 1
10
356.781000
20
61.078000
11
356.781000
21
61.654000
0
LINE
8
Layer 1
10
356.781000
20
61.654000
11
360.315000
21
61.654000
0
LINE
8
Layer 1
10
360.315000
20
61.654000
11
360.039000
21
61.474000
0
LINE
8
Layer 1
10
360.039000
20
61.474000
11
360.000000
21
62.182000
0
LINE
8
Layer 1
10
360.000000
20
62.182000
11
359.787000
21
62.833000
0
LINE
8
Layer 1
10
359.787000
20
62.833000
11
359.349000
21
63.310000
0
LINE
8
Layer 1
10
359.349000
20
63.310000
11
358.629000
21
63.490000
0
LINE
8
Layer 1
10
358.629000
20
63.490000
11
358.629000
21
63.490000
0
LINE
8
Layer 1
10
358.629000
20
63.490000
11
358.122000
21
63.419500
0
LINE
8
Layer 1
10
358.122000
20
63.419500
11
357.705000
21
63.208000
0
LINE
8
Layer 1
10
357.705000
20
63.208000
11
357.147000
21
62.467000
0
LINE
8
Layer 1
10
357.147000
20
62.467000
11
356.961000
21
61.474000
0
LINE
8
Layer 1
10
356.961000
20
61.474000
11
356.961000
21
61.474000
0
LINE
8
Layer 1
10
356.961000
20
61.474000
11
356.961000
21
61.090000
0
LINE
8
Layer 1
10
356.961000
20
61.090000
11
357.144000
21
60.016000
0
LINE
8
Layer 1
10
357.144000
20
60.016000
11
357.693000
21
59.266000
0
LINE
8
Layer 1
10
357.693000
20
59.266000
11
358.107000
21
59.059000
0
LINE
8
Layer 1
10
358.107000
20
59.059000
11
358.617000
21
58.990000
0
LINE
8
Layer 1
10
358.617000
20
58.990000
11
358.617000
21
58.990000
0
LINE
8
Layer 1
10
358.617000
20
58.990000
11
359.125500
21
59.057500
0
LINE
8
Layer 1
10
359.125500
20
59.057500
11
359.535000
21
59.260000
0
LINE
8
Layer 1
10
359.535000
20
59.260000
11
359.824500
21
59.594500
0
LINE
8
Layer 1
10
359.824500
20
59.594500
11
359.973000
21
60.058000
0
LINE
8
Layer 1
10
359.973000
20
60.058000
11
359.973000
21
60.058000
0
LINE
8
Layer 1
10
359.973000
20
60.058000
11
360.945000
21
60.058000
0
LINE
8
Layer 1
10
360.945000
20
60.058000
11
360.537000
21
59.077000
0
LINE
8
Layer 1
10
360.537000
20
59.077000
11
359.727000
21
58.444000
0
LINE
8
Layer 1
10
359.727000
20
58.444000
11
358.617000
21
58.222000
0
LINE
8
Layer 1
10
358.617000
20
58.222000
11
358.617000
21
58.222000
0
LINE
8
Layer 1
10
364.035000
20
58.366000
11
363.099000
21
58.366000
0
LINE
8
Layer 1
10
363.099000
20
58.366000
11
363.099000
21
64.990000
0
LINE
8
Layer 1
10
363.099000
20
64.990000
11
363.318000
21
65.923000
0
LINE
8
Layer 1
10
363.318000
20
65.923000
11
363.906000
21
66.460000
0
LINE
8
Layer 1
10
363.906000
20
66.460000
11
364.731000
21
66.634000
0
LINE
8
Layer 1
10
364.731000
20
66.634000
11
364.731000
21
66.634000
0
LINE
8
Layer 1
10
364.731000
20
66.634000
11
365.232000
21
66.598000
0
LINE
8
Layer 1
10
365.232000
20
66.598000
11
365.739000
21
66.490000
0
LINE
8
Layer 1
10
365.739000
20
66.490000
11
365.739000
21
66.490000
0
LINE
8
Layer 1
10
365.739000
20
66.490000
11
365.559000
21
65.746000
0
LINE
8
Layer 1
10
365.559000
20
65.746000
11
365.202000
21
65.854000
0
LINE
8
Layer 1
10
365.202000
20
65.854000
11
364.863000
21
65.890000
0
LINE
8
Layer 1
10
364.863000
20
65.890000
11
364.863000
21
65.890000
0
LINE
8
Layer 1
10
364.863000
20
65.890000
11
364.479000
21
65.818000
0
LINE
8
Layer 1
10
364.479000
20
65.818000
11
364.161000
21
65.548000
0
LINE
8
Layer 1
10
364.161000
20
65.548000
11
364.035000
21
64.978000
0
LINE
8
Layer 1
10
364.035000
20
64.978000
11
364.035000
21
64.978000
0
LINE
8
Layer 1
10
364.035000
20
64.978000
11
364.035000
21
58.366000
0
LINE
8
Layer 1
10
364.035000
20
58.366000
11
364.035000
21
58.366000
0
LINE
8
Layer 1
10
365.223000
20
63.454000
11
362.163000
21
63.454000
0
LINE
8
Layer 1
10
362.163000
20
63.454000
11
362.163000
21
64.102000
0
LINE
8
Layer 1
10
362.163000
20
64.102000
11
365.223000
21
64.102000
0
LINE
8
Layer 1
10
365.223000
20
64.102000
11
365.223000
21
63.454000
0
LINE
8
Layer 1
10
365.223000
20
63.454000
11
365.223000
21
63.454000
0
LINE
8
Layer 1
10
368.661000
20
58.222000
11
368.661000
21
58.222000
0
LINE
8
Layer 1
10
368.661000
20
58.222000
11
367.821000
21
58.402000
0
LINE
8
Layer 1
10
367.821000
20
58.402000
11
367.233000
21
58.942000
0
LINE
8
Layer 1
10
367.233000
20
58.942000
11
367.017000
21
59.842000
0
LINE
8
Layer 1
10
367.017000
20
59.842000
11
367.017000
21
59.842000
0
LINE
8
Layer 1
10
367.017000
20
59.842000
11
367.017000
21
65.698000
0
LINE
8
Layer 1
10
367.017000
20
65.698000
11
367.941000
21
65.698000
0
LINE
8
Layer 1
10
367.941000
20
65.698000
11
367.941000
21
59.866000
0
LINE
8
Layer 1
10
367.941000
20
59.866000
11
368.148000
21
59.200000
0
LINE
8
Layer 1
10
368.148000
20
59.200000
11
368.769000
21
58.978000
0
LINE
8
Layer 1
10
368.769000
20
58.978000
11
368.769000
21
58.978000
0
LINE
8
Layer 1
10
368.769000
20
58.978000
11
369.246000
21
59.032000
0
LINE
8
Layer 1
10
369.246000
20
59.032000
11
369.765000
21
59.194000
0
LINE
8
Layer 1
10
369.765000
20
59.194000
11
369.765000
21
59.194000
0
LINE
8
Layer 1
10
369.765000
20
59.194000
11
369.897000
21
58.522000
0
LINE
8
Layer 1
10
369.897000
20
58.522000
11
369.288000
21
58.306000
0
LINE
8
Layer 1
10
369.288000
20
58.306000
11
368.661000
21
58.222000
0
LINE
8
Layer 1
10
368.661000
20
58.222000
11
368.661000
21
58.222000
0
LINE
8
Layer 1
10
369.753000
20
63.454000
11
366.093000
21
63.454000
0
LINE
8
Layer 1
10
366.093000
20
63.454000
11
366.093000
21
64.102000
0
LINE
8
Layer 1
10
366.093000
20
64.102000
11
369.753000
21
64.102000
0
LINE
8
Layer 1
10
369.753000
20
64.102000
11
369.753000
21
63.454000
0
LINE
8
Layer 1
10
369.753000
20
63.454000
11
369.753000
21
63.454000
0
LINE
8
Layer 1
10
270.000000
20
115.000000
11
270.000000
21
110.000000
0
LINE
8
Layer 1
10
270.000000
20
110.000000
11
290.000000
21
110.000000
0
LINE
8
Layer 1
10
290.000000
20
110.000000
11
290.000000
21
115.000000
0
LINE
8
Layer 1
10
290.000000
20
115.000000
11
310.000000
21
115.000000
0
LINE
8
Layer 1
10
310.000000
20
115.000000
11
310.000000
21
110.000000
0
LINE
8
Layer 1
10
310.000000
20
110.000000
11
330.000000
21
110.000000
0
LINE
8
Layer 1
10
330.000000
20
110.000000
11
330.000000
21
115.000000
0
LINE
8
Layer 1
10
330.000000
20
115.000000
11
350.000000
21
115.000000
0
LINE
8
Layer 1
10
350.000000
20
115.000000
11
350.000000
21
110.000000
0
LINE
8
Layer 1
10
350.000000
20
110.000000
11
370.000000
21
110.000000
0
LINE
8
Layer 1
10
370.000000
20
110.000000
11
370.000000
21
115.000000
0
LINE
8
Layer 1
10
370.000000
20
115.000000
11
390.000000
21
115.000000
0
LINE
8
Layer 1
10
390.000000
20
115.000000
11
390.000000
21
110.000000
0
LINE
8
Layer 1
10
390.000000
20
110.000000
11
410.000000
21
110.000000
0
LINE
8
Layer 1
10
410.000000
20
110.000000
11
410.000000
21
115.000000
0
LINE
8
Layer 1
10
410.000000
20
115.000000
11
430.000000
21
115.000000
0
LINE
8
Layer 1
10
430.000000
20
115.000000
11
430.000000
21
110.000000
0
LINE
8
Layer 1
10
430.000000
20
110.000000
11
450.000000
21
110.000000
0
LINE
8
Layer 1
10
450.000000
20
110.000000
11
450.000000
21
115.000000
0
LINE
8
Layer 1
10
450.000000
20
115.000000
11
470.000000
21
115.000000
0
LINE
8
Layer 1
10
470.000000
20
115.000000
11
470.000000
21
110.000000
0
LINE
8
Layer 1
10
470.000000
20
110.000000
11
475.000000
21
110.000000
0
LINE
8
Layer 1
10
475.000000
20
110.000000
11
480.000000
21
110.000000
0
LINE
8
Layer 1
10
480.000000
20
110.000000
11
480.000000
21
115.000000
0
LINE
8
Layer 1
10
480.000000
20
115.000000
11
480.000000
21
132.500000
0
LINE
8
Layer 1
10
480.000000
20
132.500000
11
475.000000
21
132.500000
0
LINE
8
Layer 1
10
475.000000
20
132.500000
11
475.000000
21
152.500000
0
LINE
8
Layer 1
10
475.000000
20
152.500000
11
480.000000
21
152.500000
0
LINE
8
Layer 1
10
480.000000
20
152.500000
11
480.000000
21
172.500000
0
LINE
8
Layer 1
10
480.000000
20
172.500000
11
475.000000
21
172.500000
0
LINE
8
Layer 1
10
475.000000
20
172.500000
11
475.000000
21
192.500000
0
LINE
8
Layer 1
10
475.000000
20
192.500000
11
480.000000
21
192.500000
0
LINE
8
Layer 1
10
480.000000
20
192.500000
11
480.000000
21
210.000000
0
LINE
8
Layer 1
10
480.000000
20
210.000000
11
475.000000
21
210.000000
0
LINE
8
Layer 1
10
475.000000
20
210.000000
11
245.000000
21
210.000000
0
LINE
8
Layer 1
10
245.000000
20
210.000000
11
240.000000
21
210.000000
0
LINE
8
Layer 1
10
240.000000
20
210.000000
11
240.000000
21
192.500000
0
LINE
8
Layer 1
10
240.000000
20
192.500000
11
245.000000
21
192.500000
0
LINE
8
Layer 1
10
245.000000
20
192.500000
11
245.000000
21
172.500000
0
LINE
8
Layer 1
10
245.000000
20
172.500000
11
240.000000
21
172.500000
0
LINE
8
Layer 1
10
240.000000
20
172.500000
11
240.000000
21
152.500000
0
LINE
8
Layer 1
10
240.000000
20
152.500000
11
245.000000
21
152.500000
0
LINE
8
Layer 1
10
245.000000
20
152.500000
11
245.000000
21
132.500000
0
LINE
8
Layer 1
10
245.000000
20
132.500000
11
240.000000
21
132.500000
0
LINE
8
Layer 1
10
240.000000
20
132.500000
11
240.000000
21
115.000000
0
LINE
8
Layer 1
10
240.000000
20
115.000000
11
240.000000
21
110.000000
0
LINE
8
Layer 1
10
240.000000
20
110.000000
11
245.000000
21
110.000000
0
LINE
8
Layer 1
10
245.000000
20
110.000000
11
250.000000
21
110.000000
0
LINE
8
Layer 1
10
250.000000
20
110.000000
11
250.000000
21
115.000000
0
LINE
8
Layer 1
10
250.000000
20
115.000000
11
270.000000
21
115.000000
0
LINE
8
Layer 1
10
347.421000
20
158.366000
11
346.485000
21
158.366000
0
LINE
8
Layer 1
10
346.485000
20
158.366000
11
346.485000
21
165.902000
0
LINE
8
Layer 1
10
346.485000
20
165.902000
11
349.113000
21
165.902000
0
LINE
8
Layer 1
10
349.113000
20
165.902000
11
350.246250
21
165.748250
0
LINE
8
Layer 1
10
350.246250
20
165.748250
11
351.066000
21
165.287000
0
LINE
8
Layer 1
10
351.066000
20
165.287000
11
351.563250
21
164.575250
0
LINE
8
Layer 1
10
351.563250
20
164.575250
11
351.729000
21
163.670000
0
LINE
8
Layer 1
10
351.729000
20
163.670000
11
351.729000
21
163.670000
0
LINE
8
Layer 1
10
351.729000
20
163.670000
11
351.563250
21
162.773750
0
LINE
8
Layer 1
10
351.563250
20
162.773750
11
351.066000
21
162.065000
0
LINE
8
Layer 1
10
351.066000
20
162.065000
11
350.246250
21
161.603750
0
LINE
8
Layer 1
10
350.246250
20
161.603750
11
349.113000
21
161.450000
0
LINE
8
Layer 1
10
349.113000
20
161.450000
11
349.113000
21
161.450000
0
LINE
8
Layer 1
10
349.113000
20
161.450000
11
347.421000
21
161.450000
0
LINE
8
Layer 1
10
347.421000
20
161.450000
11
347.421000
21
158.366000
0
LINE
8
Layer 1
10
347.421000
20
158.366000
11
347.421000
21
158.366000
0
LINE
8
Layer 1
10
351.921000
20
158.366000
11
350.709000
21
158.366000
0
LINE
8
Layer 1
10
350.709000
20
158.366000
11
348.549000
21
161.786000
0
LINE
8
Layer 1
10
348.549000
20
161.786000
11
349.569000
21
161.786000
0
LINE
8
Layer 1
10
349.569000
20
161.786000
11
351.921000
21
158.366000
0
LINE
8
Layer 1
10
351.921000
20
158.366000
11
351.921000
21
158.366000
0
LINE
8
Layer 1
10
347.421000
20
165.098000
11
347.421000
21
162.110000
0
LINE
8
Layer 1
10
347.421000
20
162.110000
11
349.041000
21
162.110000
0
LINE
8
Layer 1
10
349.041000
20
162.110000
11
349.785750
21
162.214250
0
LINE
8
Layer 1
10
349.785750
20
162.214250
11
350.328000
21
162.527000
0
LINE
8
Layer 1
10
350.328000
20
162.527000
11
350.658750
21
163.006250
0
LINE
8
Layer 1
10
350.658750
20
163.006250
11
350.769000
21
163.610000
0
LINE
8
Layer 1
10
350.769000
20
163.610000
11
350.769000
21
163.610000
0
LINE
8
Layer 1
10
350.769000
20
163.610000
11
350.663250
21
164.223500
0
LINE
8
Layer 1
10
350.663250
20
164.223500
11
350.346000
21
164.696000
0
LINE
8
Layer 1
10
350.346000
20
164.696000
11
349.826250
21
164.997500
0
LINE
8
Layer 1
10
349.826250
20
164.997500
11
349.113000
21
165.098000
0
LINE
8
Layer 1
10
349.113000
20
165.098000
11
349.113000
21
165.098000
0
LINE
8
Layer 1
10
349.113000
20
165.098000
11
347.421000
21
165.098000
0
LINE
8
Layer 1
10
347.421000
20
165.098000
11
347.421000
21
165.098000
0
LINE
8
Layer 1
10
354.363000
20
165.458000
11
354.363000
21
165.458000
0
LINE
8
Layer 1
10
354.363000
20
165.458000
11
353.907000
21
165.623000
0
LINE
8
Layer 1
10
353.907000
20
165.623000
11
353.739000
21
166.058000
0
LINE
8
Layer 1
10
353.739000
20
166.058000
11
353.739000
21
166.058000
0
LINE
8
Layer 1
10
353.739000
20
166.058000
11
353.907000
21
166.478000
0
LINE
8
Layer 1
10
353.907000
20
166.478000
11
354.363000
21
166.634000
0
LINE
8
Layer 1
10
354.363000
20
166.634000
11
354.363000
21
166.634000
0
LINE
8
Layer 1
10
354.363000
20
166.634000
11
354.819000
21
166.478000
0
LINE
8
Layer 1
10
354.819000
20
166.478000
11
354.987000
21
166.058000
0
LINE
8
Layer 1
10
354.987000
20
166.058000
11
354.987000
21
166.058000
0
LINE
8
Layer 1
10
354.987000
20
166.058000
11
354.819000
21
165.623000
0
LINE
8
Layer 1
10
354.819000
20
165.623000
11
354.363000
21
165.458000
0
LINE
8
Layer 1
10
354.363000
20
165.458000
11
354.363000
21
165.458000
0
LINE
8
Layer 1
10
354.831000
20
158.366000
11
353.895000
21
158.366000
0
LINE
8
Layer 1
10
353.895000
20
158.366000
11
353.895000
21
164.114000
0
LINE
8
Layer 1
10
353.895000
20
164.114000
11
354.831000
21
164.114000
0
LINE
8
Layer 1
10
354.831000
20
164.114000
11
354.831000
21
158.366000
0
LINE
8
Layer 1
10
354.831000
20
158.366000
11
354.831000
21
158.366000
0
LINE
8
Layer 1
10
359.439000
20
155.414000
11
359.439000
21
155.414000
0
LINE
8
Layer 1
10
359.439000
20
155.414000
11
357.909000
21
155.663000
0
LINE
8
Layer 1
10
357.909000
20
155.663000
11
357.333750
21
155.954000
0
LINE
8
Layer 1
10
357.333750
20
155.954000
11
356.904000
21
156.329000
0
LINE
8
Layer 1
10
356.904000
20
156.329000
11
356.636250
21
156.767750
0
LINE
8
Layer 1
10
356.636250
20
156.767750
11
356.547000
21
157.250000
0
LINE
8
Layer 1
10
356.547000
20
157.250000
11
356.547000
21
157.250000
0
LINE
8
Layer 1
10
356.547000
20
157.250000
11
356.669250
21
157.837250
0
LINE
8
Layer 1
10
356.669250
20
157.837250
11
357.036000
21
158.267000
0
LINE
8
Layer 1
10
357.036000
20
158.267000
11
357.596250
21
158.530250
0
LINE
8
Layer 1
10
357.596250
20
158.530250
11
358.299000
21
158.618000
0
LINE
8
Layer 1
10
358.299000
20
158.618000
11
358.299000
21
158.618000
0
LINE
8
Layer 1
10
358.299000
20
158.618000
11
358.815000
21
158.294000
0
LINE
8
Layer 1
10
358.815000
20
158.294000
11
358.240500
21
158.226500
0
LINE
8
Layer 1
10
358.240500
20
158.226500
11
357.813000
21
158.024000
0
LINE
8
Layer 1
10
357.813000
20
158.024000
11
357.547500
21
157.704500
0
LINE
8
Layer 1
10
357.547500
20
157.704500
11
357.459000
21
157.286000
0
LINE
8
Layer 1
10
357.459000
20
157.286000
11
357.459000
21
157.286000
0
LINE
8
Layer 1
10
357.459000
20
157.286000
11
357.585000
21
156.854000
0
LINE
8
Layer 1
10
357.585000
20
156.854000
11
357.963000
21
156.494000
0
LINE
8
Layer 1
10
357.963000
20
156.494000
11
358.584000
21
156.251000
0
LINE
8
Layer 1
10
358.584000
20
156.251000
11
359.439000
21
156.170000
0
LINE
8
Layer 1
10
359.439000
20
156.170000
11
359.439000
21
156.170000
0
LINE
8
Layer 1
10
359.439000
20
156.170000
11
360.702000
21
156.377000
0
LINE
8
Layer 1
10
360.702000
20
156.377000
11
361.548000
21
156.917000
0
LINE
8
Layer 1
10
361.548000
20
156.917000
11
361.851000
21
157.634000
0
LINE
8
Layer 1
10
361.851000
20
157.634000
11
361.851000
21
157.634000
0
LINE
8
Layer 1
10
361.851000
20
157.634000
11
361.653000
21
158.099000
0
LINE
8
Layer 1
10
361.653000
20
158.099000
11
361.047000
21
158.294000
0
LINE
8
Layer 1
10
361.047000
20
158.294000
11
361.047000
21
158.294000
0
LINE
8
Layer 1
10
361.047000
20
158.294000
11
358.815000
21
158.294000
0
LINE
8
Layer 1
10
358.815000
20
158.294000
11
357.810000
21
158.471000
0
LINE
8
Layer 1
10
357.810000
20
158.471000
11
357.159000
21
158.936000
0
LINE
8
Layer 1
10
357.159000
20
158.936000
11
356.931000
21
159.566000
0
LINE
8
Layer 1
10
356.931000
20
159.566000
11
356.931000
21
159.566000
0
LINE
8
Layer 1
10
356.931000
20
159.566000
11
357.135000
21
160.178000
0
LINE
8
Layer 1
10
357.135000
20
160.178000
11
357.666000
21
160.562000
0
LINE
8
Layer 1
10
357.666000
20
160.562000
11
358.371000
21
160.694000
0
LINE
8
Layer 1
10
358.371000
20
160.694000
11
358.371000
21
160.694000
0
LINE
8
Layer 1
10
358.371000
20
160.694000
11
358.551000
21
160.346000
0
LINE
8
Layer 1
10
358.551000
20
160.346000
11
358.188000
21
160.265000
0
LINE
8
Layer 1
10
358.188000
20
160.265000
11
357.882000
21
160.025000
0
LINE
8
Layer 1
10
357.882000
20
160.025000
11
357.759000
21
159.626000
0
LINE
8
Layer 1
10
357.759000
20
159.626000
11
357.759000
21
159.626000
0
LINE
8
Layer 1
10
357.759000
20
159.626000
11
357.987000
21
159.164000
0
LINE
8
Layer 1
10
357.987000
20
159.164000
11
358.815000
21
158.978000
0
LINE
8
Layer 1
10
358.815000
20
158.978000
11
358.815000
21
158.978000
0
LINE
8
Layer 1
10
358.815000
20
158.978000
11
361.047000
21
158.978000
0
LINE
8
Layer 1
10
361.047000
20
158.978000
11
361.770750
21
158.892500
0
LINE
8
Layer 1
10
361.770750
20
158.892500
11
362.322000
21
158.636000
0
LINE
8
Layer 1
10
362.322000
20
158.636000
11
362.670750
21
158.226500
0
LINE
8
Layer 1
10
362.670750
20
158.226500
11
362.787000
21
157.682000
0
LINE
8
Layer 1
10
362.787000
20
157.682000
11
362.787000
21
157.682000
0
LINE
8
Layer 1
10
362.787000
20
157.682000
11
362.686500
21
157.129250
0
LINE
8
Layer 1
10
362.686500
20
157.129250
11
362.385000
21
156.599000
0
LINE
8
Layer 1
10
362.385000
20
156.599000
11
361.896000
21
156.126500
0
LINE
8
Layer 1
10
361.896000
20
156.126500
11
361.233000
21
155.747000
0
LINE
8
Layer 1
10
361.233000
20
155.747000
11
360.409500
21
155.497250
0
LINE
8
Layer 1
10
360.409500
20
155.497250
11
359.439000
21
155.414000
0
LINE
8
Layer 1
10
359.439000
20
155.414000
11
359.439000
21
155.414000
0
LINE
8
Layer 1
10
359.607000
20
160.046000
11
359.607000
21
160.046000
0
LINE
8
Layer 1
10
359.607000
20
160.046000
11
358.416000
21
160.310000
0
LINE
8
Layer 1
10
358.416000
20
160.310000
11
357.940500
21
160.626500
0
LINE
8
Layer 1
10
357.940500
20
160.626500
11
357.576000
21
161.048000
0
LINE
8
Layer 1
10
357.576000
20
161.048000
11
357.344250
21
161.559500
0
LINE
8
Layer 1
10
357.344250
20
161.559500
11
357.267000
21
162.146000
0
LINE
8
Layer 1
10
357.267000
20
162.146000
11
357.267000
21
162.146000
0
LINE
8
Layer 1
10
357.267000
20
162.146000
11
357.344250
21
162.737000
0
LINE
8
Layer 1
10
357.344250
20
162.737000
11
357.576000
21
163.250000
0
LINE
8
Layer 1
10
357.576000
20
163.250000
11
357.940500
21
163.670750
0
LINE
8
Layer 1
10
357.940500
20
163.670750
11
358.416000
21
163.985000
0
LINE
8
Layer 1
10
358.416000
20
163.985000
11
359.607000
21
164.246000
0
LINE
8
Layer 1
10
359.607000
20
164.246000
11
359.607000
21
164.246000
0
LINE
8
Layer 1
10
359.607000
20
164.246000
11
360.774000
21
163.985000
0
LINE
8
Layer 1
10
360.774000
20
163.985000
11
361.245750
21
163.670750
0
LINE
8
Layer 1
10
361.245750
20
163.670750
11
361.611000
21
163.250000
0
LINE
8
Layer 1
10
361.611000
20
163.250000
11
361.845000
21
162.737000
0
LINE
8
Layer 1
10
361.845000
20
162.737000
11
361.923000
21
162.146000
0
LINE
8
Layer 1
10
361.923000
20
162.146000
11
361.923000
21
162.146000
0
LINE
8
Layer 1
10
361.923000
20
162.146000
11
361.845000
21
161.559500
0
LINE
8
Layer 1
10
361.845000
20
161.559500
11
361.611000
21
161.048000
0
LINE
8
Layer 1
10
361.611000
20
161.048000
11
360.774000
21
160.310000
0
LINE
8
Layer 1
10
360.774000
20
160.310000
11
359.607000
21
160.046000
0
LINE
8
Layer 1
10
359.607000
20
160.046000
11
359.607000
21
160.046000
0
LINE
8
Layer 1
10
359.607000
20
160.718000
11
359.607000
21
160.718000
0
LINE
8
Layer 1
10
359.607000
20
160.718000
11
360.193500
21
160.820000
0
LINE
8
Layer 1
10
360.193500
20
160.820000
11
360.633000
21
161.126000
0
LINE
8
Layer 1
10
360.633000
20
161.126000
11
360.907500
21
161.585000
0
LINE
8
Layer 1
10
360.907500
20
161.585000
11
360.999000
21
162.146000
0
LINE
8
Layer 1
10
360.999000
20
162.146000
11
360.999000
21
162.146000
0
LINE
8
Layer 1
10
360.999000
20
162.146000
11
360.907500
21
162.716750
0
LINE
8
Layer 1
10
360.907500
20
162.716750
11
360.633000
21
163.169000
0
LINE
8
Layer 1
10
360.633000
20
163.169000
11
360.193500
21
163.463750
0
LINE
8
Layer 1
10
360.193500
20
163.463750
11
359.607000
21
163.562000
0
LINE
8
Layer 1
10
359.607000
20
163.562000
11
359.607000
21
163.562000
0
LINE
8
Layer 1
10
359.607000
20
163.562000
11
359.022750
21
163.463750
0
LINE
8
Layer 1
10
359.022750
20
163.463750
11
358.578000
21
163.169000
0
LINE
8
Layer 1
10
358.578000
20
163.169000
11
358.296750
21
162.716750
0
LINE
8
Layer 1
10
358.296750
20
162.716750
11
358.203000
21
162.146000
0
LINE
8
Layer 1
10
358.203000
20
162.146000
11
358.203000
21
162.146000
0
LINE
8
Layer 1
10
358.203000
20
162.146000
11
358.296750
21
161.585000
0
LINE
8
Layer 1
10
358.296750
20
161.585000
11
358.578000
21
161.126000
0
LINE
8
Layer 1
10
358.578000
20
161.126000
11
359.022750
21
160.820000
0
LINE
8
Layer 1
10
359.022750
20
160.820000
11
359.607000
21
160.718000
0
LINE
8
Layer 1
10
359.607000
20
160.718000
11
359.607000
21
160.718000
0
LINE
8
Layer 1
10
361.491000
20
163.334000
11
361.491000
21
163.334000
0
LINE
8
Layer 1
10
361.491000
20
163.334000
11
361.047000
21
163.514000
0
LINE
8
Layer 1
10
361.047000
20
163.514000
11
361.245000
21
164.399000
0
LINE
8
Layer 1
10
361.245000
20
164.399000
11
361.809000
21
164.993000
0
LINE
8
Layer 1
10
361.809000
20
164.993000
11
362.679000
21
165.206000
0
LINE
8
Layer 1
10
362.679000
20
165.206000
11
362.679000
21
165.206000
0
LINE
8
Layer 1
10
362.679000
20
165.206000
11
362.607000
21
164.282000
0
LINE
8
Layer 1
10
362.607000
20
164.282000
11
361.779000
21
164.051000
0
LINE
8
Layer 1
10
361.779000
20
164.051000
11
361.563000
21
163.756250
0
LINE
8
Layer 1
10
361.563000
20
163.756250
11
361.491000
21
163.334000
0
LINE
8
Layer 1
10
361.491000
20
163.334000
11
361.491000
21
163.334000
0
LINE
8
Layer 1
10
369.189000
20
158.366000
11
368.265000
21
158.366000
0
LINE
8
Layer 1
10
368.265000
20
158.366000
11
368.265000
21
161.738000
0
LINE
8
Layer 1
10
368.265000
20
161.738000
11
368.166750
21
162.461750
0
LINE
8
Layer 1
10
368.166750
20
162.461750
11
367.872000
21
162.989000
0
LINE
8
Layer 1
10
367.872000
20
162.989000
11
367.407750
21
163.310750
0
LINE
8
Layer 1
10
367.407750
20
163.310750
11
366.801000
21
163.418000
0
LINE
8
Layer 1
10
366.801000
20
163.418000
11
366.801000
21
163.418000
0
LINE
8
Layer 1
10
366.801000
20
163.418000
11
366.319500
21
163.347500
0
LINE
8
Layer 1
10
366.319500
20
163.347500
11
365.907000
21
163.136000
0
LINE
8
Layer 1
10
365.907000
20
163.136000
11
365.325000
21
162.329000
0
LINE
8
Layer 1
10
365.325000
20
162.329000
11
365.121000
21
161.078000
0
LINE
8
Layer 1
10
365.121000
20
161.078000
11
365.121000
21
161.078000
0
LINE
8
Layer 1
10
365.121000
20
161.078000
11
364.761000
21
161.078000
0
LINE
8
Layer 1
10
364.761000
20
161.078000
11
364.827000
21
162.006500
0
LINE
8
Layer 1
10
364.827000
20
162.006500
11
365.025000
21
162.788000
0
LINE
8
Layer 1
10
365.025000
20
162.788000
11
365.349750
21
163.412750
0
LINE
8
Layer 1
10
365.349750
20
163.412750
11
365.796000
21
163.871000
0
LINE
8
Layer 1
10
365.796000
20
163.871000
11
366.357750
21
164.152250
0
LINE
8
Layer 1
10
366.357750
20
164.152250
11
367.029000
21
164.246000
0
LINE
8
Layer 1
10
367.029000
20
164.246000
11
367.029000
21
164.246000
0
LINE
8
Layer 1
10
367.029000
20
164.246000
11
367.658250
21
164.170250
0
LINE
8
Layer 1
10
367.658250
20
164.170250
11
368.190000
21
163.943000
0
LINE
8
Layer 1
10
368.190000
20
163.943000
11
368.616750
21
163.574750
0
LINE
8
Layer 1
10
368.616750
20
163.574750
11
368.931000
21
163.076000
0
LINE
8
Layer 1
10
368.931000
20
163.076000
11
369.189000
21
161.738000
0
LINE
8
Layer 1
10
369.189000
20
161.738000
11
369.189000
21
161.738000
0
LINE
8
Layer 1
10
369.189000
20
161.738000
11
369.189000
21
158.366000
0
LINE
8
Layer 1
10
369.189000
20
158.366000
11
369.189000
21
158.366000
0
LINE
8
Layer 1
10
365.121000
20
158.366000
11
364.185000
21
158.366000
0
LINE
8
Layer 1
10
364.185000
20
158.366000
11
364.185000
21
166.550000
0
LINE
8
Layer 1
10
364.185000
20
166.550000
11
365.121000
21
166.550000
0
LINE
8
Layer 1
10
365.121000
20
166.550000
11
365.121000
21
158.366000
0
LINE
8
Layer 1
10
365.121000
20
158.366000
11
365.121000
21
158.366000
0
LINE
8
Layer 1
10
373.191000
20
158.222000
11
373.191000
21
158.222000
0
LINE
8
Layer 1
10
373.191000
20
158.222000
11
372.351000
21
158.402000
0
LINE
8
Layer 1
10
372.351000
20
158.402000
11
371.763000
21
158.942000
0
LINE
8
Layer 1
10
371.763000
20
158.942000
11
371.547000
21
159.842000
0
LINE
8
Layer 1
10
371.547000
20
159.842000
11
371.547000
21
159.842000
0
LINE
8
Layer 1
10
371.547000
20
159.842000
11
371.547000
21
165.698000
0
LINE
8
Layer 1
10
371.547000
20
165.698000
11
372.471000
21
165.698000
0
LINE
8
Layer 1
10
372.471000
20
165.698000
11
372.471000
21
159.866000
0
LINE
8
Layer 1
10
372.471000
20
159.866000
11
372.678000
21
159.200000
0
LINE
8
Layer 1
10
372.678000
20
159.200000
11
373.299000
21
158.978000
0
LINE
8
Layer 1
10
373.299000
20
158.978000
11
373.299000
21
158.978000
0
LINE
8
Layer 1
10
373.299000
20
158.978000
11
373.776000
21
159.032000
0
LINE
8
Layer 1
10
373.776000
20
159.032000
11
374.295000
21
159.194000
0
LINE
8
Layer 1
10
374.295000
20
159.194000
11
374.295000
21
159.194000
0
LINE
8
Layer 1
10
374.295000
20
159.194000
11
374.427000
21
158.522000
0
LINE
8
Layer 1
10
374.427000
20
158.522000
11
373.818000
21
158.306000
0
LINE
8
Layer 1
10
373.818000
20
158.306000
11
373.191000
21
158.222000
0
LINE
8
Layer 1
10
373.191000
20
158.222000
11
373.191000
21
158.222000
0
LINE
8
Layer 1
10
374.283000
20
163.454000
11
370.623000
21
163.454000
0
LINE
8
Layer 1
10
370.623000
20
163.454000
11
370.623000
21
164.102000
0
LINE
8
Layer 1
10
370.623000
20
164.102000
11
374.283000
21
164.102000
0
LINE
8
Layer 1
10
374.283000
20
164.102000
11
374.283000
21
163.454000
0
LINE
8
Layer 1
10
374.283000
20
163.454000
11
374.283000
21
163.454000
0
LINE
8
Layer 1
10
230.000000
20
450.000000
11
210.000000
21
450.000000
0
LINE
8
Layer 1
10
210.000000
20
450.000000
11
210.000000
21
445.000000
0
LINE
8
Layer 1
10
210.000000
20
445.000000
11
190.000000
21
445.000000
0
LINE
8
Layer 1
10
190.000000
20
445.000000
11
190.000000
21
450.000000
0
LINE
8
Layer 1
10
190.000000
20
450.000000
11
170.000000
21
450.000000
0
LINE
8
Layer 1
10
170.000000
20
450.000000
11
170.000000
21
445.000000
0
LINE
8
Layer 1
10
170.000000
20
445.000000
11
150.000000
21
445.000000
0
LINE
8
Layer 1
10
150.000000
20
445.000000
11
150.000000
21
450.000000
0
LINE
8
Layer 1
10
150.000000
20
450.000000
11
130.000000
21
450.000000
0
LINE
8
Layer 1
10
130.000000
20
450.000000
11
130.000000
21
445.000000
0
LINE
8
Layer 1
10
130.000000
20
445.000000
11
110.000000
21
445.000000
0
LINE
8
Layer 1
10
110.000000
20
445.000000
11
110.000000
21
450.000000
0
LINE
8
Layer 1
10
110.000000
20
450.000000
11
90.000000
21
450.000000
0
LINE
8
Layer 1
10
90.000000
20
450.000000
11
90.000000
21
445.000000
0
LINE
8
Layer 1
10
90.000000
20
445.000000
11
70.000000
21
445.000000
0
LINE
8
Layer 1
10
70.000000
20
445.000000
11
70.000000
21
450.000000
0
LINE
8
Layer 1
10
70.000000
20
450.000000
11
50.000000
21
450.000000
0
LINE
8
Layer 1
10
50.000000
20
450.000000
11
50.000000
21
445.000000
0
LINE
8
Layer 1
10
50.000000
20
445.000000
11
30.000000
21
445.000000
0
LINE
8
Layer 1
10
30.000000
20
445.000000
11
30.000000
21
450.000000
0
LINE
8
Layer 1
10
30.000000
20
450.000000
11
10.000000
21
450.000000
0
LINE
8
Layer 1
10
10.000000
20
450.000000
11
10.000000
21
445.000000
0
LINE
8
Layer 1
10
10.000000
20
445.000000
11
5.000000
21
445.000000
0
LINE
8
Layer 1
10
5.000000
20
445.000000
11
5.000000
21
440.000000
0
LINE
8
Layer 1
10
5.000000
20
440.000000
11
0.000000
21
440.000000
0
LINE
8
Layer 1
10
0.000000
20
440.000000
11
0.000000
21
420.000000
0
LINE
8
Layer 1
10
0.000000
20
420.000000
11
5.000000
21
420.000000
0
LINE
8
Layer 1
10
5.000000
20
420.000000
11
5.000000
21
400.000000
0
LINE
8
Layer 1
10
5.000000
20
400.000000
11
0.000000
21
400.000000
0
LINE
8
Layer 1
10
0.000000
20
400.000000
11
0.000000
21
380.000000
0
LINE
8
Layer 1
10
0.000000
20
380.000000
11
5.000000
21
380.000000
0
LINE
8
Layer 1
10
5.000000
20
380.000000
11
5.000000
21
360.000000
0
LINE
8
Layer 1
10
5.000000
20
360.000000
11
0.000000
21
360.000000
0
LINE
8
Layer 1
10
0.000000
20
360.000000
11
0.000000
21
340.000000
0
LINE
8
Layer 1
10
0.000000
20
340.000000
11
5.000000
21
340.000000
0
LINE
8
Layer 1
10
5.000000
20
340.000000
11
5.000000
21
320.000000
0
LINE
8
Layer 1
10
5.000000
20
320.000000
11
0.000000
21
320.000000
0
LINE
8
Layer 1
10
0.000000
20
320.000000
11
0.000000
21
300.000000
0
LINE
8
Layer 1
10
0.000000
20
300.000000
11
5.000000
21
300.000000
0
LINE
8
Layer 1
10
5.000000
20
300.000000
11
5.000000
21
280.000000
0
LINE
8
Layer 1
10
5.000000
20
280.000000
11
0.000000
21
280.000000
0
LINE
8
Layer 1
10
0.000000
20
280.000000
11
0.000000
21
260.000000
0
LINE
8
Layer 1
10
0.000000
20
260.000000
11
5.000000
21
260.000000
0
LINE
8
Layer 1
10
5.000000
20
260.000000
11
5.000000
21
240.000000
0
LINE
8
Layer 1
10
5.000000
20
240.000000
11
0.000000
21
240.000000
0
LINE
8
Layer 1
10
0.000000
20
240.000000
11
0.000000
21
220.000000
0
LINE
8
Layer 1
10
0.000000
20
220.000000
11
5.000000
21
220.000000
0
LINE
8
Layer 1
10
5.000000
20
220.000000
11
5.000000
21
215.000000
0
LINE
8
Layer 1
10
5.000000
20
215.000000
11
10.000000
21
215.000000
0
LINE
8
Layer 1
10
10.000000
20
215.000000
11
10.000000
21
210.000000
0
LINE
8
Layer 1
10
10.000000
20
210.000000
11
30.000000
21
210.000000
0
LINE
8
Layer 1
10
30.000000
20
210.000000
11
30.000000
21
215.000000
0
LINE
8
Layer 1
10
30.000000
20
215.000000
11
50.000000
21
215.000000
0
LINE
8
Layer 1
10
50.000000
20
215.000000
11
50.000000
21
210.000000
0
LINE
8
Layer 1
10
50.000000
20
210.000000
11
70.000000
21
210.000000
0
LINE
8
Layer 1
10
70.000000
20
210.000000
11
70.000000
21
215.000000
0
LINE
8
Layer 1
10
70.000000
20
215.000000
11
90.000000
21
215.000000
0
LINE
8
Layer 1
10
90.000000
20
215.000000
11
90.000000
21
210.000000
0
LINE
8
Layer 1
10
90.000000
20
210.000000
11
110.000000
21
210.000000
0
LINE
8
Layer 1
10
110.000000
20
210.000000
11
110.000000
21
215.000000
0
LINE
8
Layer 1
10
110.000000
20
215.000000
11
130.000000
21
215.000000
0
LINE
8
Layer 1
10
130.000000
20
215.000000
11
130.000000
21
210.000000
0
LINE
8
Layer 1
10
130.000000
20
210.000000
11
150.000000
21
210.000000
0
LINE
8
Layer 1
10
150.000000
20
210.000000
11
150.000000
21
215.000000
0
LINE
8
Layer 1
10
150.000000
20
215.000000
11
170.000000
21
215.000000
0
LINE
8
Layer 1
10
170.000000
20
215.000000
11
170.000000
21
210.000000
0
LINE
8
Layer 1
10
170.000000
20
210.000000
11
190.000000
21
210.000000
0
LINE
8
Layer 1
10
190.000000
20
210.000000
11
190.000000
21
215.000000
0
LINE
8
Layer 1
10
190.000000
20
215.000000
11
210.000000
21
215.000000
0
LINE
8
Layer 1
10
210.000000
20
215.000000
11
210.000000
21
210.000000
0
LINE
8
Layer 1
10
210.000000
20
210.000000
11
230.000000
21
210.000000
0
LINE
8
Layer 1
10
230.000000
20
210.000000
11
230.000000
21
215.000000
0
LINE
8
Layer 1
10
230.000000
20
215.000000
11
235.000000
21
215.000000
0
LINE
8
Layer 1
10
235.000000
20
215.000000
11
235.000000
21
220.000000
0
LINE
8
Layer 1
10
235.000000
20
220.000000
11
240.000000
21
220.000000
0
LINE
8
Layer 1
10
240.000000
20
220.000000
11
240.000000
21
240.000000
0
LINE
8
Layer 1
10
240.000000
20
240.000000
11
235.000000
21
240.000000
0
LINE
8
Layer 1
10
235.000000
20
240.000000
11
235.000000
21
260.000000
0
LINE
8
Layer 1
10
235.000000
20
260.000000
11
240.000000
21
260.000000
0
LINE
8
Layer 1
10
240.000000
20
260.000000
11
240.000000
21
280.000000
0
LINE
8
Layer 1
10
240.000000
20
280.000000
11
235.000000
21
280.000000
0
LINE
8
Layer 1
10
235.000000
20
280.000000
11
235.000000
21
300.000000
0
LINE
8
Layer 1
10
235.000000
20
300.000000
11
240.000000
21
300.000000
0
LINE
8
Layer 1
10
240.000000
20
300.000000
11
240.000000
21
320.000000
0
LINE
8
Layer 1
10
240.000000
20
320.000000
11
235.000000
21
320.000000
0
LINE
8
Layer 1
10
235.000000
20
320.000000
11
235.000000
21
340.000000
0
LINE
8
Layer 1
10
235.000000
20
340.000000
11
240.000000
21
340.000000
0
LINE
8
Layer 1
10
240.000000
20
340.000000
11
240.000000
21
360.000000
0
LINE
8
Layer 1
10
240.000000
20
360.000000
11
235.000000
21
360.000000
0
LINE
8
Layer 1
10
235.000000
20
360.000000
11
235.000000
21
380.000000
0
LINE
8
Layer 1
10
235.000000
20
380.000000
11
240.000000
21
380.000000
0
LINE
8
Layer 1
10
240.000000
20
380.000000
11
240.000000
21
400.000000
0
LINE
8
Layer 1
10
240.000000
20
400.000000
11
235.000000
21
400.000000
0
LINE
8
Layer 1
10
235.000000
20
400.000000
11
235.000000
21
420.000000
0
LINE
8
Layer 1
10
235.000000
20
420.000000
11
240.000000
21
420.000000
0
LINE
8
Layer 1
10
240.000000
20
420.000000
11
240.000000
21
440.000000
0
LINE
8
Layer 1
10
240.000000
20
440.000000
11
235.000000
21
440.000000
0
LINE
8
Layer 1
10
235.000000
20
440.000000
11
235.000000
21
445.000000
0
LINE
8
Layer 1
10
235.000000
20
445.000000
11
230.000000
21
445.000000
0
LINE
8
Layer 1
10
230.000000
20
445.000000
11
230.000000
21
450.000000
0
LINE
8
Layer 1
10
103.620000
20
326.232000
11
100.800000
21
326.232000
0
LINE
8
Layer 1
10
100.800000
20
326.232000
11
100.800000
21
333.768000
0
LINE
8
Layer 1
10
100.800000
20
333.768000
11
103.620000
21
333.768000
0
LINE
8
Layer 1
10
103.620000
20
333.768000
11
104.377500
21
333.699750
0
LINE
8
Layer 1
10
104.377500
20
333.699750
11
104.994000
21
333.495000
0
LINE
8
Layer 1
10
104.994000
20
333.495000
11
105.471000
21
333.178500
0
LINE
8
Layer 1
10
105.471000
20
333.178500
11
105.810000
21
332.775000
0
LINE
8
Layer 1
10
105.810000
20
332.775000
11
106.080000
21
331.800000
0
LINE
8
Layer 1
10
106.080000
20
331.800000
11
106.080000
21
331.800000
0
LINE
8
Layer 1
10
106.080000
20
331.800000
11
105.990750
21
331.194750
0
LINE
8
Layer 1
10
105.990750
20
331.194750
11
105.723000
21
330.675000
0
LINE
8
Layer 1
10
105.723000
20
330.675000
11
105.276750
21
330.273750
0
LINE
8
Layer 1
10
105.276750
20
330.273750
11
104.652000
21
330.024000
0
LINE
8
Layer 1
10
104.652000
20
330.024000
11
104.652000
21
330.024000
0
LINE
8
Layer 1
10
104.652000
20
330.024000
11
105.465000
21
329.697000
0
LINE
8
Layer 1
10
105.465000
20
329.697000
11
106.014000
21
329.073000
0
LINE
8
Layer 1
10
106.014000
20
329.073000
11
106.212000
21
328.284000
0
LINE
8
Layer 1
10
106.212000
20
328.284000
11
106.212000
21
328.284000
0
LINE
8
Layer 1
10
106.212000
20
328.284000
11
106.083000
21
327.534000
0
LINE
8
Layer 1
10
106.083000
20
327.534000
11
105.654000
21
326.874000
0
LINE
8
Layer 1
10
105.654000
20
326.874000
11
104.856000
21
326.406000
0
LINE
8
Layer 1
10
104.856000
20
326.406000
11
103.620000
21
326.232000
0
LINE
8
Layer 1
10
103.620000
20
326.232000
11
103.620000
21
326.232000
0
LINE
8
Layer 1
10
103.620000
20
326.232000
11
103.620000
21
326.232000
0
LINE
8
Layer 1
10
101.736000
20
329.592000
11
101.736000
21
327.048000
0
LINE
8
Layer 1
10
101.736000
20
327.048000
11
103.608000
21
327.048000
0
LINE
8
Layer 1
10
103.608000
20
327.048000
11
104.345250
21
327.138000
0
LINE
8
Layer 1
10
104.345250
20
327.138000
11
104.841000
21
327.408000
0
LINE
8
Layer 1
10
104.841000
20
327.408000
11
105.122250
21
327.819000
0
LINE
8
Layer 1
10
105.122250
20
327.819000
11
105.216000
21
328.332000
0
LINE
8
Layer 1
10
105.216000
20
328.332000
11
105.216000
21
328.332000
0
LINE
8
Layer 1
10
105.216000
20
328.332000
11
105.114000
21
328.845750
0
LINE
8
Layer 1
10
105.114000
20
328.845750
11
104.808000
21
329.247000
0
LINE
8
Layer 1
10
104.808000
20
329.247000
11
104.304000
21
329.505750
0
LINE
8
Layer 1
10
104.304000
20
329.505750
11
103.608000
21
329.592000
0
LINE
8
Layer 1
10
103.608000
20
329.592000
11
103.608000
21
329.592000
0
LINE
8
Layer 1
10
103.608000
20
329.592000
11
101.736000
21
329.592000
0
LINE
8
Layer 1
10
101.736000
20
329.592000
11
101.736000
21
329.592000
0
LINE
8
Layer 1
10
103.596000
20
332.964000
11
101.736000
21
332.964000
0
LINE
8
Layer 1
10
101.736000
20
332.964000
11
101.736000
21
330.396000
0
LINE
8
Layer 1
10
101.736000
20
330.396000
11
103.584000
21
330.396000
0
LINE
8
Layer 1
10
103.584000
20
330.396000
11
104.214750
21
330.482250
0
LINE
8
Layer 1
10
104.214750
20
330.482250
11
104.703000
21
330.741000
0
LINE
8
Layer 1
10
104.703000
20
330.741000
11
105.015750
21
331.157250
0
LINE
8
Layer 1
10
105.015750
20
331.157250
11
105.120000
21
331.716000
0
LINE
8
Layer 1
10
105.120000
20
331.716000
11
105.120000
21
331.716000
0
LINE
8
Layer 1
10
105.120000
20
331.716000
11
105.018750
21
332.239500
0
LINE
8
Layer 1
10
105.018750
20
332.239500
11
104.715000
21
332.634000
0
LINE
8
Layer 1
10
104.715000
20
332.634000
11
104.232750
21
332.881500
0
LINE
8
Layer 1
10
104.232750
20
332.881500
11
103.596000
21
332.964000
0
LINE
8
Layer 1
10
103.596000
20
332.964000
11
103.596000
21
332.964000
0
LINE
8
Layer 1
10
103.596000
20
332.964000
11
103.596000
21
332.964000
0
LINE
8
Layer 1
10
110.334000
20
326.088000
11
110.334000
21
326.088000
0
LINE
8
Layer 1
10
110.334000
20
326.088000
11
109.602750
21
326.173500
0
LINE
8
Layer 1
10
109.602750
20
326.173500
11
108.957000
21
326.430000
0
LINE
8
Layer 1
10
108.957000
20
326.430000
11
108.417750
21
326.854500
0
LINE
8
Layer 1
10
108.417750
20
326.854500
11
108.006000
21
327.444000
0
LINE
8
Layer 1
10
108.006000
20
327.444000
11
107.745000
21
328.194000
0
LINE
8
Layer 1
10
107.745000
20
328.194000
11
107.658000
21
329.100000
0
LINE
8
Layer 1
10
107.658000
20
329.100000
11
107.658000
21
329.100000
0
LINE
8
Layer 1
10
107.658000
20
329.100000
11
107.745000
21
330.009750
0
LINE
8
Layer 1
10
107.745000
20
330.009750
11
108.006000
21
330.759000
0
LINE
8
Layer 1
10
108.006000
20
330.759000
11
108.417750
21
331.346250
0
LINE
8
Layer 1
10
108.417750
20
331.346250
11
108.957000
21
331.770000
0
LINE
8
Layer 1
10
108.957000
20
331.770000
11
109.602750
21
332.026500
0
LINE
8
Layer 1
10
109.602750
20
332.026500
11
110.334000
21
332.112000
0
LINE
8
Layer 1
10
110.334000
20
332.112000
11
110.334000
21
332.112000
0
LINE
8
Layer 1
10
110.334000
20
332.112000
11
111.060750
21
332.026500
0
LINE
8
Layer 1
10
111.060750
20
332.026500
11
111.705000
21
331.770000
0
LINE
8
Layer 1
10
111.705000
20
331.770000
11
112.243500
21
331.346250
0
LINE
8
Layer 1
10
112.243500
20
331.346250
11
112.653000
21
330.759000
0
LINE
8
Layer 1
10
112.653000
20
330.759000
11
112.911750
21
330.009750
0
LINE
8
Layer 1
10
112.911750
20
330.009750
11
112.998000
21
329.100000
0
LINE
8
Layer 1
10
112.998000
20
329.100000
11
112.998000
21
329.100000
0
LINE
8
Layer 1
10
112.998000
20
329.100000
11
112.911750
21
328.194000
0
LINE
8
Layer 1
10
112.911750
20
328.194000
11
112.653000
21
327.444000
0
LINE
8
Layer 1
10
112.653000
20
327.444000
11
112.243500
21
326.854500
0
LINE
8
Layer 1
10
112.243500
20
326.854500
11
111.705000
21
326.430000
0
LINE
8
Layer 1
10
111.705000
20
326.430000
11
111.060750
21
326.173500
0
LINE
8
Layer 1
10
111.060750
20
326.173500
11
110.334000
21
326.088000
0
LINE
8
Layer 1
10
110.334000
20
326.088000
11
110.334000
21
326.088000
0
LINE
8
Layer 1
10
110.310000
20
326.904000
11
110.310000
21
326.904000
0
LINE
8
Layer 1
10
110.310000
20
326.904000
11
110.826000
21
326.970750
0
LINE
8
Layer 1
10
110.826000
20
326.970750
11
111.258000
21
327.171000
0
LINE
8
Layer 1
10
111.258000
20
327.171000
11
111.849000
21
327.930000
0
LINE
8
Layer 1
10
111.849000
20
327.930000
11
112.050000
21
329.100000
0
LINE
8
Layer 1
10
112.050000
20
329.100000
11
112.050000
21
329.100000
0
LINE
8
Layer 1
10
112.050000
20
329.100000
11
111.943500
21
330.017250
0
LINE
8
Layer 1
10
111.943500
20
330.017250
11
111.624000
21
330.717000
0
LINE
8
Layer 1
10
111.624000
20
330.717000
11
111.094500
21
331.160250
0
LINE
8
Layer 1
10
111.094500
20
331.160250
11
110.358000
21
331.308000
0
LINE
8
Layer 1
10
110.358000
20
331.308000
11
110.358000
21
331.308000
0
LINE
8
Layer 1
10
110.358000
20
331.308000
11
109.838250
21
331.241250
0
LINE
8
Layer 1
10
109.838250
20
331.241250
11
109.407000
21
331.041000
0
LINE
8
Layer 1
10
109.407000
20
331.041000
11
108.819000
21
330.279000
0
LINE
8
Layer 1
10
108.819000
20
330.279000
11
108.618000
21
329.100000
0
LINE
8
Layer 1
10
108.618000
20
329.100000
11
108.618000
21
329.100000
0
LINE
8
Layer 1
10
108.618000
20
329.100000
11
108.725250
21
328.191750
0
LINE
8
Layer 1
10
108.725250
20
328.191750
11
109.047000
21
327.495000
0
LINE
8
Layer 1
10
109.047000
20
327.495000
11
109.577250
21
327.051750
0
LINE
8
Layer 1
10
109.577250
20
327.051750
11
110.310000
21
326.904000
0
LINE
8
Layer 1
10
110.310000
20
326.904000
11
110.310000
21
326.904000
0
LINE
8
Layer 1
10
116.580000
20
326.088000
11
116.580000
21
326.088000
0
LINE
8
Layer 1
10
116.580000
20
326.088000
11
115.740000
21
326.268000
0
LINE
8
Layer 1
10
115.740000
20
326.268000
11
115.152000
21
326.808000
0
LINE
8
Layer 1
10
115.152000
20
326.808000
11
114.936000
21
327.708000
0
LINE
8
Layer 1
10
114.936000
20
327.708000
11
114.936000
21
327.708000
0
LINE
8
Layer 1
10
114.936000
20
327.708000
11
114.936000
21
333.564000
0
LINE
8
Layer 1
10
114.936000
20
333.564000
11
115.860000
21
333.564000
0
LINE
8
Layer 1
10
115.860000
20
333.564000
11
115.860000
21
327.732000
0
LINE
8
Layer 1
10
115.860000
20
327.732000
11
116.067000
21
327.066000
0
LINE
8
Layer 1
10
116.067000
20
327.066000
11
116.688000
21
326.844000
0
LINE
8
Layer 1
10
116.688000
20
326.844000
11
116.688000
21
326.844000
0
LINE
8
Layer 1
10
116.688000
20
326.844000
11
117.165000
21
326.898000
0
LINE
8
Layer 1
10
117.165000
20
326.898000
11
117.684000
21
327.060000
0
LINE
8
Layer 1
10
117.684000
20
327.060000
11
117.684000
21
327.060000
0
LINE
8
Layer 1
10
117.684000
20
327.060000
11
117.816000
21
326.388000
0
LINE
8
Layer 1
10
117.816000
20
326.388000
11
117.207000
21
326.172000
0
LINE
8
Layer 1
10
117.207000
20
326.172000
11
116.580000
21
326.088000
0
LINE
8
Layer 1
10
116.580000
20
326.088000
11
116.580000
21
326.088000
0
LINE
8
Layer 1
10
117.672000
20
331.320000
11
114.012000
21
331.320000
0
LINE
8
Layer 1
10
114.012000
20
331.320000
11
114.012000
21
331.968000
0
LINE
8
Layer 1
10
114.012000
20
331.968000
11
117.672000
21
331.968000
0
LINE
8
Layer 1
10
117.672000
20
331.968000
11
117.672000
21
331.320000
0
LINE
8
Layer 1
10
117.672000
20
331.320000
11
117.672000
21
331.320000
0
LINE
8
Layer 1
10
121.092000
20
326.088000
11
121.092000
21
326.088000
0
LINE
8
Layer 1
10
121.092000
20
326.088000
11
120.252000
21
326.268000
0
LINE
8
Layer 1
10
120.252000
20
326.268000
11
119.664000
21
326.808000
0
LINE
8
Layer 1
10
119.664000
20
326.808000
11
119.448000
21
327.708000
0
LINE
8
Layer 1
10
119.448000
20
327.708000
11
119.448000
21
327.708000
0
LINE
8
Layer 1
10
119.448000
20
327.708000
11
119.448000
21
333.564000
0
LINE
8
Layer 1
10
119.448000
20
333.564000
11
120.372000
21
333.564000
0
LINE
8
Layer 1
10
120.372000
20
333.564000
11
120.372000
21
327.732000
0
LINE
8
Layer 1
10
120.372000
20
327.732000
11
120.579000
21
327.066000
0
LINE
8
Layer 1
10
120.579000
20
327.066000
11
121.200000
21
326.844000
0
LINE
8
Layer 1
10
121.200000
20
326.844000
11
121.200000
21
326.844000
0
LINE
8
Layer 1
10
121.200000
20
326.844000
11
121.677000
21
326.898000
0
LINE
8
Layer 1
10
121.677000
20
326.898000
11
122.196000
21
327.060000
0
LINE
8
Layer 1
10
122.196000
20
327.060000
11
122.196000
21
327.060000
0
LINE
8
Layer 1
10
122.196000
20
327.060000
11
122.328000
21
326.388000
0
LINE
8
Layer 1
10
122.328000
20
326.388000
11
121.719000
21
326.172000
0
LINE
8
Layer 1
10
121.719000
20
326.172000
11
121.092000
21
326.088000
0
LINE
8
Layer 1
10
121.092000
20
326.088000
11
121.092000
21
326.088000
0
LINE
8
Layer 1
10
122.184000
20
331.320000
11
118.524000
21
331.320000
0
LINE
8
Layer 1
10
118.524000
20
331.320000
11
118.524000
21
331.968000
0
LINE
8
Layer 1
10
118.524000
20
331.968000
11
122.184000
21
331.968000
0
LINE
8
Layer 1
10
122.184000
20
331.968000
11
122.184000
21
331.320000
0
LINE
8
Layer 1
10
122.184000
20
331.320000
11
122.184000
21
331.320000
0
LINE
8
Layer 1
10
125.916000
20
326.088000
11
125.916000
21
326.088000
0
LINE
8
Layer 1
10
125.916000
20
326.088000
11
125.184750
21
326.173500
0
LINE
8
Layer 1
10
125.184750
20
326.173500
11
124.539000
21
326.430000
0
LINE
8
Layer 1
10
124.539000
20
326.430000
11
123.999750
21
326.854500
0
LINE
8
Layer 1
10
123.999750
20
326.854500
11
123.588000
21
327.444000
0
LINE
8
Layer 1
10
123.588000
20
327.444000
11
123.327000
21
328.194000
0
LINE
8
Layer 1
10
123.327000
20
328.194000
11
123.240000
21
329.100000
0
LINE
8
Layer 1
10
123.240000
20
329.100000
11
123.240000
21
329.100000
0
LINE
8
Layer 1
10
123.240000
20
329.100000
11
123.327000
21
330.009750
0
LINE
8
Layer 1
10
123.327000
20
330.009750
11
123.588000
21
330.759000
0
LINE
8
Layer 1
10
123.588000
20
330.759000
11
123.999750
21
331.346250
0
LINE
8
Layer 1
10
123.999750
20
331.346250
11
124.539000
21
331.770000
0
LINE
8
Layer 1
10
124.539000
20
331.770000
11
125.184750
21
332.026500
0
LINE
8
Layer 1
10
125.184750
20
332.026500
11
125.916000
21
332.112000
0
LINE
8
Layer 1
10
125.916000
20
332.112000
11
125.916000
21
332.112000
0
LINE
8
Layer 1
10
125.916000
20
332.112000
11
126.642750
21
332.026500
0
LINE
8
Layer 1
10
126.642750
20
332.026500
11
127.287000
21
331.770000
0
LINE
8
Layer 1
10
127.287000
20
331.770000
11
127.825500
21
331.346250
0
LINE
8
Layer 1
10
127.825500
20
331.346250
11
128.235000
21
330.759000
0
LINE
8
Layer 1
10
128.235000
20
330.759000
11
128.493750
21
330.009750
0
LINE
8
Layer 1
10
128.493750
20
330.009750
11
128.580000
21
329.100000
0
LINE
8
Layer 1
10
128.580000
20
329.100000
11
128.580000
21
329.100000
0
LINE
8
Layer 1
10
128.580000
20
329.100000
11
128.493750
21
328.194000
0
LINE
8
Layer 1
10
128.493750
20
328.194000
11
128.235000
21
327.444000
0
LINE
8
Layer 1
10
128.235000
20
327.444000
11
127.825500
21
326.854500
0
LINE
8
Layer 1
10
127.825500
20
326.854500
11
127.287000
21
326.430000
0
LINE
8
Layer 1
10
127.287000
20
326.430000
11
126.642750
21
326.173500
0
LINE
8
Layer 1
10
126.642750
20
326.173500
11
125.916000
21
326.088000
0
LINE
8
Layer 1
10
125.916000
20
326.088000
11
125.916000
21
326.088000
0
LINE
8
Layer 1
10
125.892000
20
326.904000
11
125.892000
21
326.904000
0
LINE
8
Layer 1
10
125.892000
20
326.904000
11
126.408000
21
326.970750
0
LINE
8
Layer 1
10
126.408000
20
326.970750
11
126.840000
21
327.171000
0
LINE
8
Layer 1
10
126.840000
20
327.171000
11
127.431000
21
327.930000
0
LINE
8
Layer 1
10
127.431000
20
327.930000
11
127.632000
21
329.100000
0
LINE
8
Layer 1
10
127.632000
20
329.100000
11
127.632000
21
329.100000
0
LINE
8
Layer 1
10
127.632000
20
329.100000
11
127.525500
21
330.017250
0
LINE
8
Layer 1
10
127.525500
20
330.017250
11
127.206000
21
330.717000
0
LINE
8
Layer 1
10
127.206000
20
330.717000
11
126.676500
21
331.160250
0
LINE
8
Layer 1
10
126.676500
20
331.160250
11
125.940000
21
331.308000
0
LINE
8
Layer 1
10
125.940000
20
331.308000
11
125.940000
21
331.308000
0
LINE
8
Layer 1
10
125.940000
20
331.308000
11
125.420250
21
331.241250
0
LINE
8
Layer 1
10
125.420250
20
331.241250
11
124.989000
21
331.041000
0
LINE
8
Layer 1
10
124.989000
20
331.041000
11
124.401000
21
330.279000
0
LINE
8
Layer 1
10
124.401000
20
330.279000
11
124.200000
21
329.100000
0
LINE
8
Layer 1
10
124.200000
20
329.100000
11
124.200000
21
329.100000
0
LINE
8
Layer 1
10
124.200000
20
329.100000
11
124.307250
21
328.191750
0
LINE
8
Layer 1
10
124.307250
20
328.191750
11
124.629000
21
327.495000
0
LINE
8
Layer 1
10
124.629000
20
327.495000
11
125.159250
21
327.051750
0
LINE
8
Layer 1
10
125.159250
20
327.051750
11
125.892000
21
326.904000
0
LINE
8
Layer 1
10
125.892000
20
326.904000
11
125.892000
21
326.904000
0
LINE
8
Layer 1
10
139.398000
20
326.232000
11
138.462000
21
326.232000
0
LINE
8
Layer 1
10
138.462000
20
326.232000
11
138.462000
21
329.604000
0
LINE
8
Layer 1
10
138.462000
20
329.604000
11
138.363750
21
330.327750
0
LINE
8
Layer 1
10
138.363750
20
330.327750
11
138.069000
21
330.855000
0
LINE
8
Layer 1
10
138.069000
20
330.855000
11
137.607750
21
331.176750
0
LINE
8
Layer 1
10
137.607750
20
331.176750
11
137.010000
21
331.284000
0
LINE
8
Layer 1
10
137.010000
20
331.284000
11
137.010000
21
331.284000
0
LINE
8
Layer 1
10
137.010000
20
331.284000
11
136.321500
21
331.133250
0
LINE
8
Layer 1
10
136.321500
20
331.133250
11
135.816000
21
330.681000
0
LINE
8
Layer 1
10
135.816000
20
330.681000
11
135.505500
21
329.963250
0
LINE
8
Layer 1
10
135.505500
20
329.963250
11
135.402000
21
329.016000
0
LINE
8
Layer 1
10
135.402000
20
329.016000
11
135.402000
21
329.016000
0
LINE
8
Layer 1
10
135.402000
20
329.016000
11
134.970000
21
329.016000
0
LINE
8
Layer 1
10
134.970000
20
329.016000
11
135.123000
21
330.372000
0
LINE
8
Layer 1
10
135.123000
20
330.372000
11
135.570000
21
331.341000
0
LINE
8
Layer 1
10
135.570000
20
331.341000
11
136.284000
21
331.920000
0
LINE
8
Layer 1
10
136.284000
20
331.920000
11
137.238000
21
332.112000
0
LINE
8
Layer 1
10
137.238000
20
332.112000
11
137.238000
21
332.112000
0
LINE
8
Layer 1
10
137.238000
20
332.112000
11
137.867250
21
332.036250
0
LINE
8
Layer 1
10
137.867250
20
332.036250
11
138.399000
21
331.809000
0
LINE
8
Layer 1
10
138.399000
20
331.809000
11
138.825750
21
331.440750
0
LINE
8
Layer 1
10
138.825750
20
331.440750
11
139.140000
21
330.942000
0
LINE
8
Layer 1
10
139.140000
20
330.942000
11
139.398000
21
329.604000
0
LINE
8
Layer 1
10
139.398000
20
329.604000
11
139.398000
21
329.604000
0
LINE
8
Layer 1
10
139.398000
20
329.604000
11
139.398000
21
326.232000
0
LINE
8
Layer 1
10
139.398000
20
326.232000
11
139.398000
21
326.232000
0
LINE
8
Layer 1
10
131.334000
20
326.232000
11
130.398000
21
326.232000
0
LINE
8
Layer 1
10
130.398000
20
326.232000
11
130.398000
21
331.968000
0
LINE
8
Layer 1
10
130.398000
20
331.968000
11
131.202000
21
331.968000
0
LINE
8
Layer 1
10
131.202000
20
331.968000
11
131.310000
21
330.816000
0
LINE
8
Layer 1
10
131.310000
20
330.816000
11
131.634750
21
331.368000
0
LINE
8
Layer 1
10
131.634750
20
331.368000
11
132.069000
21
331.776000
0
LINE
8
Layer 1
10
132.069000
20
331.776000
11
132.606750
21
332.028000
0
LINE
8
Layer 1
10
132.606750
20
332.028000
11
133.242000
21
332.112000
0
LINE
8
Layer 1
10
133.242000
20
332.112000
11
133.242000
21
332.112000
0
LINE
8
Layer 1
10
133.242000
20
332.112000
11
133.871250
21
332.036250
0
LINE
8
Layer 1
10
133.871250
20
332.036250
11
134.403000
21
331.809000
0
LINE
8
Layer 1
10
134.403000
20
331.809000
11
134.829750
21
331.440750
0
LINE
8
Layer 1
10
134.829750
20
331.440750
11
135.144000
21
330.942000
0
LINE
8
Layer 1
10
135.144000
20
330.942000
11
135.402000
21
329.604000
0
LINE
8
Layer 1
10
135.402000
20
329.604000
11
135.402000
21
329.604000
0
LINE
8
Layer 1
10
135.402000
20
329.604000
11
135.402000
21
326.232000
0
LINE
8
Layer 1
10
135.402000
20
326.232000
11
134.478000
21
326.232000
0
LINE
8
Layer 1
10
134.478000
20
326.232000
11
134.478000
21
329.604000
0
LINE
8
Layer 1
10
134.478000
20
329.604000
11
134.379750
21
330.327750
0
LINE
8
Layer 1
10
134.379750
20
330.327750
11
134.085000
21
330.855000
0
LINE
8
Layer 1
10
134.085000
20
330.855000
11
133.620750
21
331.176750
0
LINE
8
Layer 1
10
133.620750
20
331.176750
11
133.014000
21
331.284000
0
LINE
8
Layer 1
10
133.014000
20
331.284000
11
133.014000
21
331.284000
0
LINE
8
Layer 1
10
133.014000
20
331.284000
11
132.532500
21
331.213500
0
LINE
8
Layer 1
10
132.532500
20
331.213500
11
132.120000
21
331.002000
0
LINE
8
Layer 1
10
132.120000
20
331.002000
11
131.538000
21
330.195000
0
LINE
8
Layer 1
10
131.538000
20
330.195000
11
131.334000
21
328.944000
0
LINE
8
Layer 1
10
131.334000
20
328.944000
11
131.334000
21
328.944000
0
LINE
8
Layer 1
10
131.334000
20
328.944000
11
131.334000
21
326.232000
0
LINE
8
Layer 1
10
131.334000
20
326.232000
11
131.334000
21
326.232000
 0 
ENDSEC
 0 
EOF